G04*
G04 #@! TF.GenerationSoftware,Altium Limited,Altium Designer,20.1.14 (287)*
G04*
G04 Layer_Color=255*
%FSLAX25Y25*%
%MOIN*%
G70*
G04*
G04 #@! TF.SameCoordinates,46E05FB7-D2F1-4F7C-BBBD-68B76CC3C332*
G04*
G04*
G04 #@! TF.FilePolarity,Positive*
G04*
G01*
G75*
%ADD17R,0.02205X0.02362*%
%ADD18R,0.02362X0.02126*%
%ADD19R,0.03543X0.05118*%
%ADD20R,0.02126X0.02362*%
%ADD21R,0.02362X0.02205*%
%ADD22R,0.02362X0.03543*%
%ADD23R,0.02200X0.05800*%
%ADD24R,0.01575X0.01496*%
%ADD25R,0.07100X0.07500*%
%ADD26O,0.03900X0.07500*%
%ADD27O,0.04100X0.04900*%
%ADD28R,0.01600X0.05300*%
%ADD29R,0.14961X0.07992*%
%ADD30R,0.03661X0.03504*%
%ADD31R,0.05906X0.05118*%
%ADD32R,0.01968X0.03959*%
%ADD33R,0.01496X0.01575*%
%ADD34R,0.01772X0.01772*%
%ADD35R,0.05591X0.03622*%
%ADD36R,0.02559X0.02953*%
%ADD37R,0.04331X0.05591*%
%ADD38R,0.03543X0.02362*%
%ADD39R,0.01713X0.01024*%
%ADD40R,0.01713X0.01614*%
%ADD41R,0.05906X0.01181*%
%ADD42R,0.01181X0.05906*%
%ADD43R,0.03937X0.07087*%
%ADD45R,0.01614X0.01713*%
%ADD46R,0.01024X0.01713*%
G04:AMPARAMS|DCode=47|XSize=29.13mil|YSize=8.66mil|CornerRadius=0.26mil|HoleSize=0mil|Usage=FLASHONLY|Rotation=0.000|XOffset=0mil|YOffset=0mil|HoleType=Round|Shape=RoundedRectangle|*
%AMROUNDEDRECTD47*
21,1,0.02913,0.00814,0,0,0.0*
21,1,0.02861,0.00866,0,0,0.0*
1,1,0.00052,0.01431,-0.00407*
1,1,0.00052,-0.01431,-0.00407*
1,1,0.00052,-0.01431,0.00407*
1,1,0.00052,0.01431,0.00407*
%
%ADD47ROUNDEDRECTD47*%
G04:AMPARAMS|DCode=48|XSize=31.89mil|YSize=10.24mil|CornerRadius=1.28mil|HoleSize=0mil|Usage=FLASHONLY|Rotation=180.000|XOffset=0mil|YOffset=0mil|HoleType=Round|Shape=RoundedRectangle|*
%AMROUNDEDRECTD48*
21,1,0.03189,0.00768,0,0,180.0*
21,1,0.02933,0.01024,0,0,180.0*
1,1,0.00256,-0.01467,0.00384*
1,1,0.00256,0.01467,0.00384*
1,1,0.00256,0.01467,-0.00384*
1,1,0.00256,-0.01467,-0.00384*
%
%ADD48ROUNDEDRECTD48*%
G04:AMPARAMS|DCode=49|XSize=31.89mil|YSize=10.24mil|CornerRadius=1.28mil|HoleSize=0mil|Usage=FLASHONLY|Rotation=270.000|XOffset=0mil|YOffset=0mil|HoleType=Round|Shape=RoundedRectangle|*
%AMROUNDEDRECTD49*
21,1,0.03189,0.00768,0,0,270.0*
21,1,0.02933,0.01024,0,0,270.0*
1,1,0.00256,-0.00384,-0.01467*
1,1,0.00256,-0.00384,0.01467*
1,1,0.00256,0.00384,0.01467*
1,1,0.00256,0.00384,-0.01467*
%
%ADD49ROUNDEDRECTD49*%
%ADD50R,0.10236X0.10236*%
G04:AMPARAMS|DCode=51|XSize=16.54mil|YSize=12.21mil|CornerRadius=3.05mil|HoleSize=0mil|Usage=FLASHONLY|Rotation=90.000|XOffset=0mil|YOffset=0mil|HoleType=Round|Shape=RoundedRectangle|*
%AMROUNDEDRECTD51*
21,1,0.01654,0.00610,0,0,90.0*
21,1,0.01043,0.01221,0,0,90.0*
1,1,0.00610,0.00305,0.00522*
1,1,0.00610,0.00305,-0.00522*
1,1,0.00610,-0.00305,-0.00522*
1,1,0.00610,-0.00305,0.00522*
%
%ADD51ROUNDEDRECTD51*%
%ADD52R,0.03700X0.01600*%
%ADD53R,0.01200X0.01800*%
%ADD54R,0.04173X0.07165*%
%ADD55R,0.07992X0.14961*%
%ADD56R,0.03150X0.03150*%
%ADD73R,0.05906X0.04724*%
%ADD83R,0.02800X0.01400*%
%ADD103R,0.02677X0.00787*%
%ADD104R,0.00787X0.02677*%
%ADD105R,0.01200X0.02400*%
%ADD106C,0.05937*%
%ADD107R,0.05937X0.05937*%
%ADD108C,0.12795*%
%ADD109C,0.05504*%
%ADD110R,0.05504X0.05504*%
%ADD111C,0.09272*%
D17*
X148887Y318600D02*
D03*
X152313D02*
D03*
X29014Y275027D02*
D03*
X32439D02*
D03*
X29814Y237211D02*
D03*
X33239D02*
D03*
X332400Y184200D02*
D03*
X328975D02*
D03*
X332425Y195300D02*
D03*
X329000D02*
D03*
X337800D02*
D03*
X341225D02*
D03*
X337800Y189728D02*
D03*
X341225D02*
D03*
X188841Y280738D02*
D03*
X192266D02*
D03*
D18*
X149000Y328500D02*
D03*
Y325098D02*
D03*
X256900Y204299D02*
D03*
Y207701D02*
D03*
X267500Y171901D02*
D03*
Y168499D02*
D03*
X282600Y182401D02*
D03*
Y178999D02*
D03*
D19*
X207994Y268538D02*
D03*
X200513D02*
D03*
X282020Y127341D02*
D03*
X289500D02*
D03*
X398207Y70000D02*
D03*
X405687D02*
D03*
X369087Y69907D02*
D03*
X361607D02*
D03*
D20*
X172553Y268438D02*
D03*
X175954D02*
D03*
X286099Y135000D02*
D03*
X289501D02*
D03*
X386148Y87600D02*
D03*
X382747D02*
D03*
X365947Y62248D02*
D03*
X369348D02*
D03*
X66203Y174029D02*
D03*
X69604D02*
D03*
X53601Y37628D02*
D03*
X50199D02*
D03*
X53601Y32100D02*
D03*
X50199D02*
D03*
X352400Y159800D02*
D03*
X355802D02*
D03*
X352299Y207100D02*
D03*
X355701D02*
D03*
X337799Y184200D02*
D03*
X341201D02*
D03*
X50200Y62599D02*
D03*
X46798D02*
D03*
D21*
X60800Y170687D02*
D03*
Y174113D02*
D03*
X272000Y63013D02*
D03*
Y59587D02*
D03*
X305800Y119913D02*
D03*
Y116487D02*
D03*
X273800Y207625D02*
D03*
Y204200D02*
D03*
X70000Y37187D02*
D03*
Y40613D02*
D03*
X287200Y59587D02*
D03*
Y63013D02*
D03*
D22*
X177453Y170500D02*
D03*
X171547D02*
D03*
X128147Y139600D02*
D03*
X134053D02*
D03*
X44667Y211106D02*
D03*
X50572D02*
D03*
X44667Y203317D02*
D03*
X50572D02*
D03*
X50572Y195529D02*
D03*
X44667D02*
D03*
X50572Y187741D02*
D03*
X44667D02*
D03*
X50572Y179952D02*
D03*
X44667D02*
D03*
X50572Y172164D02*
D03*
X44667D02*
D03*
X50572Y164264D02*
D03*
X44667D02*
D03*
X50253Y47600D02*
D03*
X44347D02*
D03*
X50253Y55800D02*
D03*
X44347D02*
D03*
X68000Y181200D02*
D03*
X62094D02*
D03*
D23*
X138900Y277600D02*
D03*
X143900D02*
D03*
X148900D02*
D03*
X153900D02*
D03*
Y305900D02*
D03*
X148900D02*
D03*
X143900D02*
D03*
X138900D02*
D03*
D24*
X127000Y293302D02*
D03*
Y291098D02*
D03*
X391647Y68005D02*
D03*
Y65800D02*
D03*
X268500Y204298D02*
D03*
Y206502D02*
D03*
X261500Y169000D02*
D03*
Y171205D02*
D03*
X391647Y72198D02*
D03*
Y74402D02*
D03*
D25*
X283455Y12200D02*
D03*
X274400D02*
D03*
D26*
X295365D02*
D03*
X262491D02*
D03*
D27*
X287687Y24011D02*
D03*
X270168D02*
D03*
D28*
X284046Y22724D02*
D03*
X281487D02*
D03*
X278928D02*
D03*
X276368D02*
D03*
X273809D02*
D03*
D29*
X331000Y10500D02*
D03*
X182200Y10000D02*
D03*
X375500D02*
D03*
X229000D02*
D03*
D30*
X297400Y127295D02*
D03*
Y133705D02*
D03*
X279239Y60339D02*
D03*
Y66748D02*
D03*
D31*
X297000Y96500D02*
D03*
Y89020D02*
D03*
D32*
X289528Y105914D02*
D03*
X293269D02*
D03*
X297009D02*
D03*
Y116566D02*
D03*
X289528D02*
D03*
D33*
X369243Y76900D02*
D03*
X371447D02*
D03*
X31132Y269827D02*
D03*
X28927D02*
D03*
X31629Y232111D02*
D03*
X29424D02*
D03*
X252300Y185400D02*
D03*
X250095D02*
D03*
X262100Y204300D02*
D03*
X264304D02*
D03*
D34*
X21754Y233938D02*
D03*
Y237284D02*
D03*
X25100D02*
D03*
Y233938D02*
D03*
X21054Y271654D02*
D03*
Y275000D02*
D03*
X24400D02*
D03*
Y271654D02*
D03*
D35*
X21027Y280490D02*
D03*
Y288364D02*
D03*
X21827Y252148D02*
D03*
Y244274D02*
D03*
D36*
X84400Y180634D02*
D03*
Y176500D02*
D03*
X81447D02*
D03*
Y180634D02*
D03*
D37*
X120784Y139800D02*
D03*
X113816D02*
D03*
D38*
X120869Y131864D02*
D03*
Y125958D02*
D03*
X112981Y131916D02*
D03*
Y126011D02*
D03*
X274159Y171853D02*
D03*
Y165947D02*
D03*
X279200Y105900D02*
D03*
Y111805D02*
D03*
D39*
X248684Y193816D02*
D03*
Y195784D02*
D03*
X245717D02*
D03*
Y193816D02*
D03*
D40*
X248684Y198048D02*
D03*
Y191552D02*
D03*
X245717D02*
D03*
Y198048D02*
D03*
D41*
X160715Y211922D02*
D03*
Y209953D02*
D03*
Y207985D02*
D03*
Y206016D02*
D03*
Y204048D02*
D03*
Y202080D02*
D03*
Y200111D02*
D03*
Y198143D02*
D03*
Y196174D02*
D03*
Y194205D02*
D03*
Y192237D02*
D03*
Y190269D02*
D03*
Y188300D02*
D03*
Y186331D02*
D03*
Y184363D02*
D03*
Y182395D02*
D03*
Y180426D02*
D03*
Y178457D02*
D03*
Y176489D02*
D03*
Y174521D02*
D03*
Y172552D02*
D03*
Y170583D02*
D03*
Y168615D02*
D03*
Y166647D02*
D03*
Y164678D02*
D03*
X100085D02*
D03*
Y166647D02*
D03*
Y168615D02*
D03*
Y170583D02*
D03*
Y172552D02*
D03*
Y174521D02*
D03*
Y176489D02*
D03*
Y178457D02*
D03*
Y180426D02*
D03*
Y182395D02*
D03*
Y184363D02*
D03*
Y186331D02*
D03*
Y188300D02*
D03*
Y190269D02*
D03*
Y192237D02*
D03*
Y194205D02*
D03*
Y196174D02*
D03*
Y198143D02*
D03*
Y200111D02*
D03*
Y202080D02*
D03*
Y204048D02*
D03*
Y206016D02*
D03*
Y207985D02*
D03*
Y209953D02*
D03*
Y211922D02*
D03*
D42*
X154022Y157985D02*
D03*
X152053D02*
D03*
X150085D02*
D03*
X148117D02*
D03*
X146148D02*
D03*
X144179D02*
D03*
X142211D02*
D03*
X140243D02*
D03*
X138274D02*
D03*
X136305D02*
D03*
X134337D02*
D03*
X132369D02*
D03*
X130400D02*
D03*
X128431D02*
D03*
X126463D02*
D03*
X124495D02*
D03*
X122526D02*
D03*
X120557D02*
D03*
X118589D02*
D03*
X116621D02*
D03*
X114652D02*
D03*
X112683D02*
D03*
X110715D02*
D03*
X108747D02*
D03*
X106778D02*
D03*
Y218615D02*
D03*
X108747D02*
D03*
X110715D02*
D03*
X112683D02*
D03*
X114652D02*
D03*
X116621D02*
D03*
X118589D02*
D03*
X120557D02*
D03*
X122526D02*
D03*
X124495D02*
D03*
X126463D02*
D03*
X128431D02*
D03*
X130400D02*
D03*
X132369D02*
D03*
X134337D02*
D03*
X136305D02*
D03*
X138274D02*
D03*
X140243D02*
D03*
X142211D02*
D03*
X144179D02*
D03*
X146148D02*
D03*
X148117D02*
D03*
X150085D02*
D03*
X152053D02*
D03*
X154022D02*
D03*
D43*
X112221Y242900D02*
D03*
X102379D02*
D03*
D45*
X143368Y260233D02*
D03*
X149864D02*
D03*
Y263200D02*
D03*
X143368D02*
D03*
D46*
X147600Y260233D02*
D03*
X145632D02*
D03*
Y263200D02*
D03*
X147600D02*
D03*
D47*
X315438Y195505D02*
D03*
Y193537D02*
D03*
Y191569D02*
D03*
Y189600D02*
D03*
Y187631D02*
D03*
Y185663D02*
D03*
Y183695D02*
D03*
X310162D02*
D03*
Y185663D02*
D03*
Y187631D02*
D03*
Y189600D02*
D03*
Y191569D02*
D03*
Y193537D02*
D03*
Y195505D02*
D03*
D48*
X258993Y185427D02*
D03*
Y187396D02*
D03*
Y189364D02*
D03*
Y191333D02*
D03*
Y193301D02*
D03*
Y195270D02*
D03*
X274347D02*
D03*
Y193301D02*
D03*
Y191333D02*
D03*
Y189364D02*
D03*
Y187396D02*
D03*
Y185427D02*
D03*
D49*
X271592Y182671D02*
D03*
X269623D02*
D03*
X267654D02*
D03*
X265686D02*
D03*
X263718D02*
D03*
X261749D02*
D03*
Y198026D02*
D03*
X263718D02*
D03*
X265686D02*
D03*
X267654D02*
D03*
X269623D02*
D03*
X271592D02*
D03*
D50*
X266670Y190349D02*
D03*
D51*
X59860Y40084D02*
D03*
X61828D02*
D03*
X63797D02*
D03*
Y37800D02*
D03*
X61828D02*
D03*
X59860D02*
D03*
D52*
X329012Y209749D02*
D03*
X340000Y215300D02*
D03*
Y217859D02*
D03*
Y207190D02*
D03*
X329012D02*
D03*
Y217859D02*
D03*
X328912Y162178D02*
D03*
X339900Y167729D02*
D03*
Y170288D02*
D03*
Y159618D02*
D03*
X328912D02*
D03*
Y170288D02*
D03*
D53*
X281129Y48939D02*
D03*
X277192Y51539D02*
D03*
X279161D02*
D03*
X281129D02*
D03*
X279159Y48939D02*
D03*
X277189D02*
D03*
D54*
X392516Y243400D02*
D03*
X380484D02*
D03*
D55*
X369447Y116900D02*
D03*
X413200Y31900D02*
D03*
D56*
X249357Y169000D02*
D03*
X255657D02*
D03*
D73*
X381600Y70300D02*
D03*
D83*
X358850Y218075D02*
D03*
Y214925D02*
D03*
X349750D02*
D03*
Y218075D02*
D03*
X358850Y170875D02*
D03*
Y167725D02*
D03*
X349750D02*
D03*
Y170875D02*
D03*
D103*
X189900Y267001D02*
D03*
Y268576D02*
D03*
Y270150D02*
D03*
Y271725D02*
D03*
Y273300D02*
D03*
X182931D02*
D03*
Y271725D02*
D03*
Y270150D02*
D03*
Y268576D02*
D03*
Y267001D02*
D03*
D104*
X187400Y273635D02*
D03*
X185431D02*
D03*
Y266666D02*
D03*
X187400D02*
D03*
D105*
X378647Y65800D02*
D03*
X380616D02*
D03*
X382584D02*
D03*
X384553D02*
D03*
Y74800D02*
D03*
X382584D02*
D03*
X380616D02*
D03*
X378647D02*
D03*
D106*
X419300Y355500D02*
D03*
Y345500D02*
D03*
Y335500D02*
D03*
Y325500D02*
D03*
Y315500D02*
D03*
Y305500D02*
D03*
Y295500D02*
D03*
Y285500D02*
D03*
Y275500D02*
D03*
Y265500D02*
D03*
X409300Y355500D02*
D03*
Y345500D02*
D03*
Y335500D02*
D03*
Y325500D02*
D03*
Y315500D02*
D03*
Y305500D02*
D03*
Y295500D02*
D03*
Y285500D02*
D03*
Y275500D02*
D03*
D107*
Y265500D02*
D03*
D108*
X405865Y164008D02*
D03*
Y214008D02*
D03*
D109*
X388857Y174992D02*
D03*
X395865Y179008D02*
D03*
X388857Y183024D02*
D03*
X395865Y187039D02*
D03*
X388857Y191055D02*
D03*
X395865Y195071D02*
D03*
X388857Y199087D02*
D03*
D110*
X395865Y203102D02*
D03*
D111*
X392361Y157000D02*
D03*
Y221016D02*
D03*
M02*
