G04*
G04 #@! TF.GenerationSoftware,Altium Limited,Altium Designer,20.1.14 (287)*
G04*
G04 Layer_Color=65535*
%FSLAX25Y25*%
%MOIN*%
G70*
G04*
G04 #@! TF.SameCoordinates,337FD55F-C749-4CE5-A7C0-25B7CD9D1A6A*
G04*
G04*
G04 #@! TF.FilePolarity,Positive*
G04*
G01*
G75*
%ADD10C,0.00394*%
%ADD11C,0.00787*%
%ADD12C,0.01000*%
%ADD13C,0.00500*%
%ADD14C,0.00600*%
%ADD15C,0.00492*%
%ADD16C,0.00300*%
G36*
X180593Y269400D02*
X179593D01*
Y270900D01*
X180593D01*
Y269400D01*
D02*
G37*
D10*
X306297Y195600D02*
G03*
X306297Y195600I-197J0D01*
G01*
X60057Y35202D02*
G03*
X60057Y35202I-197J0D01*
G01*
D11*
X242894Y198300D02*
G03*
X242894Y198300I-394J0D01*
G01*
X143509Y257016D02*
G03*
X143509Y257016I-394J0D01*
G01*
X278717Y185427D02*
G03*
X278717Y185427I-394J0D01*
G01*
X81192Y184531D02*
G03*
X81192Y184531I-394J0D01*
G01*
X400835Y265500D02*
G03*
X400835Y265500I-394J0D01*
G01*
X401259Y203102D02*
G03*
X401259Y203102I-394J0D01*
G01*
X197253Y272538D02*
X211253D01*
X197253Y264538D02*
Y272538D01*
Y264538D02*
X211253D01*
Y272538D01*
X169000Y167500D02*
Y173500D01*
Y167500D02*
X180000D01*
X169000Y173500D02*
X180000D01*
Y167500D02*
Y173500D01*
X292760Y123342D02*
Y131342D01*
X278760Y123342D02*
X292760D01*
X278760D02*
Y131342D01*
X292760D01*
X408947Y66000D02*
Y74000D01*
X394947Y66000D02*
X408947D01*
X394947D02*
Y74000D01*
X408947D01*
X354047Y65907D02*
Y73907D01*
X368047D01*
Y65907D02*
Y73907D01*
X354047Y65907D02*
X368047D01*
X136600Y136600D02*
Y142600D01*
X125600D02*
X136600D01*
X125600Y136600D02*
X136600D01*
X125600D02*
Y142600D01*
X117869Y123411D02*
X123869D01*
Y134411D01*
X117869Y123411D02*
Y134411D01*
X123869D01*
X109981Y123464D02*
X115981D01*
Y134464D01*
X109981Y123464D02*
Y134464D01*
X115981D01*
X53120Y208106D02*
Y214106D01*
X42120D02*
X53120D01*
X42120Y208106D02*
X53120D01*
X42120D02*
Y214106D01*
X53120Y200317D02*
Y206317D01*
X42120D02*
X53120D01*
X42120Y200317D02*
X53120D01*
X42120D02*
Y206317D01*
Y192529D02*
Y198529D01*
Y192529D02*
X53120D01*
X42120Y198529D02*
X53120D01*
Y192529D02*
Y198529D01*
X42120Y184740D02*
Y190741D01*
Y184740D02*
X53120D01*
X42120Y190741D02*
X53120D01*
Y184740D02*
Y190741D01*
X42120Y176952D02*
Y182952D01*
Y176952D02*
X53120D01*
X42120Y182952D02*
X53120D01*
Y176952D02*
Y182952D01*
X42120Y169164D02*
Y175164D01*
Y169164D02*
X53120D01*
X42120Y175164D02*
X53120D01*
Y169164D02*
Y175164D01*
X42120Y161264D02*
Y167264D01*
Y161264D02*
X53120D01*
X42120Y167264D02*
X53120D01*
Y161264D02*
Y167264D01*
X246507Y166000D02*
X258507D01*
Y172000D01*
X246507D02*
X258507D01*
X246507Y166000D02*
Y172000D01*
X245507Y166000D02*
Y172000D01*
X246507D01*
X245507Y166000D02*
X246507D01*
X271159Y163400D02*
X277158D01*
Y174400D01*
X271159Y163400D02*
Y174400D01*
X277158D01*
X41800Y44600D02*
Y50600D01*
Y44600D02*
X52800D01*
X41800Y50600D02*
X52800D01*
Y44600D02*
Y50600D01*
X41800Y52800D02*
Y58800D01*
Y52800D02*
X52800D01*
X41800Y58800D02*
X52800D01*
Y52800D02*
Y58800D01*
X59547Y178200D02*
Y184200D01*
Y178200D02*
X70547D01*
X59547Y184200D02*
X70547D01*
Y178200D02*
Y184200D01*
X276200Y114353D02*
X282200D01*
X276200Y103353D02*
Y114353D01*
X282200Y103353D02*
Y114353D01*
X276200Y103353D02*
X282200D01*
D12*
X286327Y102590D02*
G03*
X286327Y102590I-439J0D01*
G01*
X195342Y264470D02*
G03*
X195342Y264470I-356J0D01*
G01*
X157302Y314001D02*
Y319999D01*
X160301D01*
X161301Y318999D01*
Y317000D01*
X160301Y316000D01*
X157302D01*
X159302D02*
X161301Y314001D01*
X163301D02*
X165300D01*
X164300D01*
Y319999D01*
X163301Y318999D01*
X172298Y314001D02*
X168299D01*
X172298Y318000D01*
Y318999D01*
X171298Y319999D01*
X169299D01*
X168299Y318999D01*
X158101Y330199D02*
X157102Y331199D01*
X155102D01*
X154102Y330199D01*
Y326201D01*
X155102Y325201D01*
X157102D01*
X158101Y326201D01*
X160100Y325201D02*
X162100D01*
X161100D01*
Y331199D01*
X160100Y330199D01*
X169098Y325201D02*
X165099D01*
X169098Y329200D01*
Y330199D01*
X168098Y331199D01*
X166099D01*
X165099Y330199D01*
X203501Y260499D02*
X202502Y261499D01*
X200502D01*
X199502Y260499D01*
Y256501D01*
X200502Y255501D01*
X202502D01*
X203501Y256501D01*
X205501Y255501D02*
X207500D01*
X206500D01*
Y261499D01*
X205501Y260499D01*
X210499D02*
X211498Y261499D01*
X213498D01*
X214498Y260499D01*
Y259500D01*
X213498Y258500D01*
X212498D01*
X213498D01*
X214498Y257500D01*
Y256501D01*
X213498Y255501D01*
X211498D01*
X210499Y256501D01*
X167201Y277899D02*
X166201Y278899D01*
X164202D01*
X163202Y277899D01*
Y273901D01*
X164202Y272901D01*
X166201D01*
X167201Y273901D01*
X169201Y272901D02*
X171200D01*
X170200D01*
Y278899D01*
X169201Y277899D01*
X177198Y272901D02*
Y278899D01*
X174199Y275900D01*
X178198D01*
X182200Y259798D02*
Y254800D01*
X183200Y253800D01*
X185199D01*
X186199Y254800D01*
Y259798D01*
X191197Y253800D02*
Y259798D01*
X188198Y256799D01*
X192197D01*
X55402Y160401D02*
Y166399D01*
X58402D01*
X59401Y165399D01*
Y163400D01*
X58402Y162400D01*
X55402D01*
X57402D02*
X59401Y160401D01*
X61401D02*
X63400D01*
X62400D01*
Y166399D01*
X61401Y165399D01*
X69398Y160401D02*
Y166399D01*
X66399Y163400D01*
X70398D01*
X173001Y181999D02*
X172002Y182999D01*
X170002D01*
X169002Y181999D01*
Y178001D01*
X170002Y177001D01*
X172002D01*
X173001Y178001D01*
X175001Y177001D02*
X177000D01*
X176000D01*
Y182999D01*
X175001Y181999D01*
X183998Y182999D02*
X179999D01*
Y180000D01*
X181998Y181000D01*
X182998D01*
X183998Y180000D01*
Y178001D01*
X182998Y177001D01*
X180999D01*
X179999Y178001D01*
X119302Y316699D02*
Y311701D01*
X120301Y310701D01*
X122301D01*
X123300Y311701D01*
Y316699D01*
X125300Y315699D02*
X126299Y316699D01*
X128299D01*
X129298Y315699D01*
Y314700D01*
X128299Y313700D01*
X127299D01*
X128299D01*
X129298Y312700D01*
Y311701D01*
X128299Y310701D01*
X126299D01*
X125300Y311701D01*
X109400Y289200D02*
Y295198D01*
X112399D01*
X113399Y294198D01*
Y292199D01*
X112399Y291199D01*
X109400D01*
X111399D02*
X113399Y289200D01*
X115398D02*
X117397D01*
X116398D01*
Y295198D01*
X115398Y294198D01*
X120396Y289200D02*
X122396D01*
X121396D01*
Y295198D01*
X120396Y294198D01*
X262399Y36698D02*
X260399D01*
X261399D01*
Y31700D01*
X260399Y30700D01*
X259400D01*
X258400Y31700D01*
X264398Y30700D02*
X266397D01*
X265398D01*
Y36698D01*
X264398Y35698D01*
X323000Y24498D02*
X326999D01*
X324999D01*
Y18500D01*
X328998D02*
Y24498D01*
X331997D01*
X332997Y23498D01*
Y21499D01*
X331997Y20499D01*
X328998D01*
X334996Y18500D02*
X336996D01*
X335996D01*
Y24498D01*
X334996Y23498D01*
X251700Y58300D02*
Y64298D01*
X254699D01*
X255699Y63298D01*
Y61299D01*
X254699Y60299D01*
X251700D01*
X253699D02*
X255699Y58300D01*
X257698D02*
X259697D01*
X258698D01*
Y64298D01*
X257698Y63298D01*
X266695Y64298D02*
X262696D01*
Y61299D01*
X264696Y62299D01*
X265696D01*
X266695Y61299D01*
Y59300D01*
X265696Y58300D01*
X263696D01*
X262696Y59300D01*
X307299Y133498D02*
X303300D01*
Y130499D01*
X305299D01*
X303300D01*
Y127500D01*
X309298Y133498D02*
Y127500D01*
X312297D01*
X313297Y128500D01*
Y129499D01*
X312297Y130499D01*
X309298D01*
X312297D01*
X313297Y131499D01*
Y132498D01*
X312297Y133498D01*
X309298D01*
X319295D02*
X315296D01*
Y130499D01*
X317296Y131499D01*
X318295D01*
X319295Y130499D01*
Y128500D01*
X318295Y127500D01*
X316296D01*
X315296Y128500D01*
X311100Y115200D02*
Y121198D01*
X314099D01*
X315099Y120198D01*
Y118199D01*
X314099Y117199D01*
X311100D01*
X313099D02*
X315099Y115200D01*
X317098D02*
X319097D01*
X318098D01*
Y121198D01*
X317098Y120198D01*
X322096Y121198D02*
X326095D01*
Y120198D01*
X322096Y116200D01*
Y115200D01*
X303002Y86001D02*
Y91999D01*
X306001D01*
X307001Y90999D01*
Y89000D01*
X306001Y88000D01*
X303002D01*
X305002D02*
X307001Y86001D01*
X309000D02*
X311000D01*
X310000D01*
Y91999D01*
X309000Y90999D01*
X313999D02*
X314999Y91999D01*
X316998D01*
X317998Y90999D01*
Y90000D01*
X316998Y89000D01*
X317998Y88000D01*
Y87001D01*
X316998Y86001D01*
X314999D01*
X313999Y87001D01*
Y88000D01*
X314999Y89000D01*
X313999Y90000D01*
Y90999D01*
X314999Y89000D02*
X316998D01*
X304502Y103999D02*
Y99001D01*
X305501Y98001D01*
X307501D01*
X308500Y99001D01*
Y103999D01*
X314498D02*
X312499Y102999D01*
X310500Y101000D01*
Y99001D01*
X311499Y98001D01*
X313499D01*
X314498Y99001D01*
Y100000D01*
X313499Y101000D01*
X310500D01*
X263399Y129298D02*
X262399Y130298D01*
X260400D01*
X259400Y129298D01*
Y125300D01*
X260400Y124300D01*
X262399D01*
X263399Y125300D01*
X269397Y124300D02*
X265398D01*
X269397Y128299D01*
Y129298D01*
X268397Y130298D01*
X266398D01*
X265398Y129298D01*
X271396D02*
X272396Y130298D01*
X274395D01*
X275395Y129298D01*
Y128299D01*
X274395Y127299D01*
X275395Y126299D01*
Y125300D01*
X274395Y124300D01*
X272396D01*
X271396Y125300D01*
Y126299D01*
X272396Y127299D01*
X271396Y128299D01*
Y129298D01*
X272396Y127299D02*
X274395D01*
X283799Y145298D02*
X282799Y146298D01*
X280800D01*
X279800Y145298D01*
Y141300D01*
X280800Y140300D01*
X282799D01*
X283799Y141300D01*
X289797Y140300D02*
X285798D01*
X289797Y144299D01*
Y145298D01*
X288797Y146298D01*
X286798D01*
X285798Y145298D01*
X291796Y141300D02*
X292796Y140300D01*
X294795D01*
X295795Y141300D01*
Y145298D01*
X294795Y146298D01*
X292796D01*
X291796Y145298D01*
Y144299D01*
X292796Y143299D01*
X295795D01*
X411001Y61999D02*
X410002Y62999D01*
X408002D01*
X407003Y61999D01*
Y58001D01*
X408002Y57001D01*
X410002D01*
X411001Y58001D01*
X413001Y61999D02*
X414000Y62999D01*
X416000D01*
X416999Y61999D01*
Y61000D01*
X416000Y60000D01*
X415000D01*
X416000D01*
X416999Y59000D01*
Y58001D01*
X416000Y57001D01*
X414000D01*
X413001Y58001D01*
X418999Y61999D02*
X419998Y62999D01*
X421998D01*
X422997Y61999D01*
Y61000D01*
X421998Y60000D01*
X420998D01*
X421998D01*
X422997Y59000D01*
Y58001D01*
X421998Y57001D01*
X419998D01*
X418999Y58001D01*
X369502Y86499D02*
Y81501D01*
X370501Y80501D01*
X372501D01*
X373500Y81501D01*
Y86499D01*
X375500D02*
X379498D01*
Y85499D01*
X375500Y81501D01*
Y80501D01*
X387502Y54001D02*
Y59999D01*
X390501D01*
X391501Y58999D01*
Y57000D01*
X390501Y56000D01*
X387502D01*
X389502D02*
X391501Y54001D01*
X393500D02*
X395500D01*
X394500D01*
Y59999D01*
X393500Y58999D01*
X398499Y55001D02*
X399499Y54001D01*
X401498D01*
X402498Y55001D01*
Y58999D01*
X401498Y59999D01*
X399499D01*
X398499Y58999D01*
Y58000D01*
X399499Y57000D01*
X402498D01*
X380399Y97898D02*
X379399Y98898D01*
X377400D01*
X376400Y97898D01*
Y93900D01*
X377400Y92900D01*
X379399D01*
X380399Y93900D01*
X382398Y97898D02*
X383398Y98898D01*
X385397D01*
X386397Y97898D01*
Y96899D01*
X385397Y95899D01*
X384397D01*
X385397D01*
X386397Y94899D01*
Y93900D01*
X385397Y92900D01*
X383398D01*
X382398Y93900D01*
X391395Y92900D02*
Y98898D01*
X388396Y95899D01*
X392395D01*
X338201Y62999D02*
X337201Y63999D01*
X335202D01*
X334202Y62999D01*
Y59001D01*
X335202Y58001D01*
X337201D01*
X338201Y59001D01*
X340200Y62999D02*
X341200Y63999D01*
X343199D01*
X344199Y62999D01*
Y62000D01*
X343199Y61000D01*
X342200D01*
X343199D01*
X344199Y60000D01*
Y59001D01*
X343199Y58001D01*
X341200D01*
X340200Y59001D01*
X346198Y58001D02*
X348198D01*
X347198D01*
Y63999D01*
X346198Y62999D01*
X338201Y71999D02*
X337202Y72999D01*
X335202D01*
X334203Y71999D01*
Y68001D01*
X335202Y67001D01*
X337202D01*
X338201Y68001D01*
X340201Y71999D02*
X341200Y72999D01*
X343200D01*
X344199Y71999D01*
Y71000D01*
X343200Y70000D01*
X342200D01*
X343200D01*
X344199Y69000D01*
Y68001D01*
X343200Y67001D01*
X341200D01*
X340201Y68001D01*
X350197Y67001D02*
X346199D01*
X350197Y71000D01*
Y71999D01*
X349198Y72999D01*
X347198D01*
X346199Y71999D01*
X334203Y76001D02*
Y81999D01*
X337202D01*
X338201Y80999D01*
Y79000D01*
X337202Y78000D01*
X334203D01*
X336202D02*
X338201Y76001D01*
X344199D02*
X340201D01*
X344199Y80000D01*
Y80999D01*
X343200Y81999D01*
X341200D01*
X340201Y80999D01*
X346199D02*
X347198Y81999D01*
X349198D01*
X350197Y80999D01*
Y77001D01*
X349198Y76001D01*
X347198D01*
X346199Y77001D01*
Y80999D01*
X15504Y263999D02*
Y258001D01*
X19502D01*
X25500Y263999D02*
X21502D01*
Y258001D01*
X25500D01*
X21502Y261000D02*
X23501D01*
X27500Y263999D02*
Y258001D01*
X30499D01*
X31498Y259001D01*
Y262999D01*
X30499Y263999D01*
X27500D01*
X37496Y258001D02*
X33498D01*
X37496Y262000D01*
Y262999D01*
X36497Y263999D01*
X34497D01*
X33498Y262999D01*
X15003Y300499D02*
Y294501D01*
X19002D01*
X25000Y300499D02*
X21001D01*
Y294501D01*
X25000D01*
X21001Y297500D02*
X23001D01*
X26999Y300499D02*
Y294501D01*
X29998D01*
X30998Y295501D01*
Y299499D01*
X29998Y300499D01*
X26999D01*
X32997Y294501D02*
X34997D01*
X33997D01*
Y300499D01*
X32997Y299499D01*
X71601Y192699D02*
X75600Y186701D01*
Y192699D02*
X71601Y186701D01*
X77599D02*
X79599D01*
X78599D01*
Y192699D01*
X77599Y191699D01*
X130501Y132399D02*
X129501Y133399D01*
X127502D01*
X126502Y132399D01*
Y128401D01*
X127502Y127401D01*
X129501D01*
X130501Y128401D01*
X132501Y127401D02*
X134500D01*
X133500D01*
Y133399D01*
X132501Y132399D01*
X141498Y133399D02*
X139498Y132399D01*
X137499Y130400D01*
Y128401D01*
X138499Y127401D01*
X140498D01*
X141498Y128401D01*
Y129400D01*
X140498Y130400D01*
X137499D01*
X97600Y142798D02*
Y136800D01*
X101599D01*
X103598Y141798D02*
X104598Y142798D01*
X106597D01*
X107597Y141798D01*
Y140799D01*
X106597Y139799D01*
X105597D01*
X106597D01*
X107597Y138799D01*
Y137800D01*
X106597Y136800D01*
X104598D01*
X103598Y137800D01*
X118902Y107999D02*
X117902Y106999D01*
Y105000D01*
X118902Y104000D01*
X122900D01*
X123900Y105000D01*
Y106999D01*
X122900Y107999D01*
X123900Y113997D02*
Y109998D01*
X119901Y113997D01*
X118902D01*
X117902Y112997D01*
Y110998D01*
X118902Y109998D01*
X117902Y119995D02*
Y115996D01*
X120901D01*
X119901Y117996D01*
Y118995D01*
X120901Y119995D01*
X122900D01*
X123900Y118995D01*
Y116996D01*
X122900Y115996D01*
X111002Y108099D02*
X110002Y107099D01*
Y105100D01*
X111002Y104100D01*
X115000D01*
X116000Y105100D01*
Y107099D01*
X115000Y108099D01*
X116000Y114097D02*
Y110098D01*
X112001Y114097D01*
X111002D01*
X110002Y113097D01*
Y111098D01*
X111002Y110098D01*
X110002Y120095D02*
X111002Y118096D01*
X113001Y116096D01*
X115000D01*
X116000Y117096D01*
Y119095D01*
X115000Y120095D01*
X114001D01*
X113001Y119095D01*
Y116096D01*
X78301Y166099D02*
X74303D01*
Y163100D01*
X76302D01*
X74303D01*
Y160101D01*
X80301Y166099D02*
Y160101D01*
X83300D01*
X84299Y161101D01*
Y162100D01*
X83300Y163100D01*
X80301D01*
X83300D01*
X84299Y164100D01*
Y165099D01*
X83300Y166099D01*
X80301D01*
X86299Y165099D02*
X87298Y166099D01*
X89298D01*
X90297Y165099D01*
Y164100D01*
X89298Y163100D01*
X88298D01*
X89298D01*
X90297Y162100D01*
Y161101D01*
X89298Y160101D01*
X87298D01*
X86299Y161101D01*
X27699Y213098D02*
X26699Y214098D01*
X24700D01*
X23700Y213098D01*
Y209100D01*
X24700Y208100D01*
X26699D01*
X27699Y209100D01*
X29698Y208100D02*
X31697D01*
X30698D01*
Y214098D01*
X29698Y213098D01*
X34696Y214098D02*
X38695D01*
Y213098D01*
X34696Y209100D01*
Y208100D01*
X27699Y205298D02*
X26699Y206298D01*
X24700D01*
X23700Y205298D01*
Y201300D01*
X24700Y200300D01*
X26699D01*
X27699Y201300D01*
X29698Y200300D02*
X31697D01*
X30698D01*
Y206298D01*
X29698Y205298D01*
X34696D02*
X35696Y206298D01*
X37696D01*
X38695Y205298D01*
Y204299D01*
X37696Y203299D01*
X38695Y202299D01*
Y201300D01*
X37696Y200300D01*
X35696D01*
X34696Y201300D01*
Y202299D01*
X35696Y203299D01*
X34696Y204299D01*
Y205298D01*
X35696Y203299D02*
X37696D01*
X27699Y197498D02*
X26699Y198498D01*
X24700D01*
X23700Y197498D01*
Y193500D01*
X24700Y192500D01*
X26699D01*
X27699Y193500D01*
X29698Y192500D02*
X31697D01*
X30698D01*
Y198498D01*
X29698Y197498D01*
X34696Y193500D02*
X35696Y192500D01*
X37696D01*
X38695Y193500D01*
Y197498D01*
X37696Y198498D01*
X35696D01*
X34696Y197498D01*
Y196499D01*
X35696Y195499D01*
X38695D01*
X26699Y189698D02*
X25699Y190698D01*
X23700D01*
X22700Y189698D01*
Y185700D01*
X23700Y184700D01*
X25699D01*
X26699Y185700D01*
X32697Y184700D02*
X28698D01*
X32697Y188699D01*
Y189698D01*
X31697Y190698D01*
X29698D01*
X28698Y189698D01*
X34696D02*
X35696Y190698D01*
X37695D01*
X38695Y189698D01*
Y185700D01*
X37695Y184700D01*
X35696D01*
X34696Y185700D01*
Y189698D01*
X28699Y181998D02*
X27699Y182998D01*
X25700D01*
X24700Y181998D01*
Y178000D01*
X25700Y177000D01*
X27699D01*
X28699Y178000D01*
X34697Y177000D02*
X30698D01*
X34697Y180999D01*
Y181998D01*
X33697Y182998D01*
X31698D01*
X30698Y181998D01*
X36696Y177000D02*
X38695D01*
X37696D01*
Y182998D01*
X36696Y181998D01*
X26699Y174198D02*
X25699Y175198D01*
X23700D01*
X22700Y174198D01*
Y170200D01*
X23700Y169200D01*
X25699D01*
X26699Y170200D01*
X32697Y169200D02*
X28698D01*
X32697Y173199D01*
Y174198D01*
X31697Y175198D01*
X29698D01*
X28698Y174198D01*
X38695Y169200D02*
X34696D01*
X38695Y173199D01*
Y174198D01*
X37695Y175198D01*
X35696D01*
X34696Y174198D01*
X26699Y166298D02*
X25699Y167298D01*
X23700D01*
X22700Y166298D01*
Y162300D01*
X23700Y161300D01*
X25699D01*
X26699Y162300D01*
X32697Y161300D02*
X28698D01*
X32697Y165299D01*
Y166298D01*
X31697Y167298D01*
X29698D01*
X28698Y166298D01*
X34696D02*
X35696Y167298D01*
X37695D01*
X38695Y166298D01*
Y165299D01*
X37695Y164299D01*
X36696D01*
X37695D01*
X38695Y163299D01*
Y162300D01*
X37695Y161300D01*
X35696D01*
X34696Y162300D01*
X400700Y364600D02*
Y370598D01*
X403699D01*
X404699Y369598D01*
Y367599D01*
X403699Y366599D01*
X400700D01*
X410697Y364600D02*
X406698D01*
X410697Y368599D01*
Y369598D01*
X409697Y370598D01*
X407698D01*
X406698Y369598D01*
X100300Y256498D02*
X104299Y250500D01*
Y256498D02*
X100300Y250500D01*
X110297D02*
X106298D01*
X110297Y254499D01*
Y255498D01*
X109297Y256498D01*
X107298D01*
X106298Y255498D01*
X95600Y235198D02*
Y230200D01*
X96600Y229200D01*
X98599D01*
X99599Y230200D01*
Y235198D01*
X105597D02*
X101598D01*
Y232199D01*
X103597Y233199D01*
X104597D01*
X105597Y232199D01*
Y230200D01*
X104597Y229200D01*
X102598D01*
X101598Y230200D01*
X58700Y51098D02*
Y46100D01*
X59700Y45100D01*
X61699D01*
X62699Y46100D01*
Y51098D01*
X68697Y45100D02*
X64698D01*
X68697Y49099D01*
Y50098D01*
X67697Y51098D01*
X65698D01*
X64698Y50098D01*
X279001Y205199D02*
Y200201D01*
X280001Y199201D01*
X282000D01*
X283000Y200201D01*
Y205199D01*
X284999Y199201D02*
X286999D01*
X285999D01*
Y205199D01*
X284999Y204199D01*
X409153Y49898D02*
X413152D01*
X411152D01*
Y43900D01*
X415151D02*
Y49898D01*
X418150D01*
X419149Y48898D01*
Y46899D01*
X418150Y45899D01*
X415151D01*
X425148Y49898D02*
X423148Y48898D01*
X421149Y46899D01*
Y44900D01*
X422149Y43900D01*
X424148D01*
X425148Y44900D01*
Y45899D01*
X424148Y46899D01*
X421149D01*
X365400Y134898D02*
X369399D01*
X367399D01*
Y128900D01*
X371398D02*
Y134898D01*
X374397D01*
X375397Y133898D01*
Y131899D01*
X374397Y130899D01*
X371398D01*
X381395Y134898D02*
X377396D01*
Y131899D01*
X379396Y132899D01*
X380395D01*
X381395Y131899D01*
Y129900D01*
X380395Y128900D01*
X378396D01*
X377396Y129900D01*
X221000Y23998D02*
X224999D01*
X222999D01*
Y18000D01*
X226998D02*
Y23998D01*
X229997D01*
X230997Y22998D01*
Y20999D01*
X229997Y19999D01*
X226998D01*
X235995Y18000D02*
Y23998D01*
X232996Y20999D01*
X236995D01*
X367500Y23998D02*
X371499D01*
X369499D01*
Y18000D01*
X373498D02*
Y23998D01*
X376497D01*
X377497Y22998D01*
Y20999D01*
X376497Y19999D01*
X373498D01*
X379496Y22998D02*
X380496Y23998D01*
X382495D01*
X383495Y22998D01*
Y21999D01*
X382495Y20999D01*
X381495D01*
X382495D01*
X383495Y19999D01*
Y19000D01*
X382495Y18000D01*
X380496D01*
X379496Y19000D01*
X174200Y23998D02*
X178199D01*
X176199D01*
Y18000D01*
X180198D02*
Y23998D01*
X183197D01*
X184197Y22998D01*
Y20999D01*
X183197Y19999D01*
X180198D01*
X190195Y18000D02*
X186196D01*
X190195Y21999D01*
Y22998D01*
X189195Y23998D01*
X187196D01*
X186196Y22998D01*
X329600Y153498D02*
X333599D01*
X331599D01*
Y147500D01*
X339597D02*
X335598D01*
X339597Y151499D01*
Y152498D01*
X338597Y153498D01*
X336598D01*
X335598Y152498D01*
X325706Y230601D02*
X329705D01*
X327705D01*
Y224603D01*
X331704D02*
X333703D01*
X332704D01*
Y230601D01*
X331704Y229602D01*
X122500Y257600D02*
Y263598D01*
X125499D01*
X126499Y262598D01*
Y260599D01*
X125499Y259599D01*
X122500D01*
X124499D02*
X126499Y257600D01*
X128498D02*
Y263598D01*
X131497D01*
X132497Y262598D01*
Y260599D01*
X131497Y259599D01*
X128498D01*
X138495Y257600D02*
X134496D01*
X138495Y261599D01*
Y262598D01*
X137495Y263598D01*
X135496D01*
X134496Y262598D01*
X224700Y191800D02*
Y197798D01*
X227699D01*
X228699Y196798D01*
Y194799D01*
X227699Y193799D01*
X224700D01*
X226699D02*
X228699Y191800D01*
X230698D02*
Y197798D01*
X233697D01*
X234697Y196798D01*
Y194799D01*
X233697Y193799D01*
X230698D01*
X236696Y191800D02*
X238696D01*
X237696D01*
Y197798D01*
X236696Y196798D01*
X391002Y78501D02*
Y84499D01*
X394001D01*
X395001Y83499D01*
Y81500D01*
X394001Y80500D01*
X391002D01*
X393002D02*
X395001Y78501D01*
X400999D02*
X397000D01*
X400999Y82500D01*
Y83499D01*
X399999Y84499D01*
X398000D01*
X397000Y83499D01*
X402998Y78501D02*
X404998D01*
X403998D01*
Y84499D01*
X402998Y83499D01*
X294101Y69098D02*
X300099D01*
Y66098D01*
X299099Y65099D01*
X297100D01*
X296100Y66098D01*
Y69098D01*
Y67098D02*
X294101Y65099D01*
Y63099D02*
Y61100D01*
Y62100D01*
X300099D01*
X299099Y63099D01*
X300099Y54102D02*
X299099Y56102D01*
X297100Y58101D01*
X295101D01*
X294101Y57101D01*
Y55102D01*
X295101Y54102D01*
X296100D01*
X297100Y55102D01*
Y58101D01*
X187700Y286000D02*
Y291998D01*
X190699D01*
X191699Y290998D01*
Y288999D01*
X190699Y287999D01*
X187700D01*
X189699D02*
X191699Y286000D01*
X193698D02*
X195697D01*
X194698D01*
Y291998D01*
X193698Y290998D01*
X198696D02*
X199696Y291998D01*
X201695D01*
X202695Y290998D01*
Y289999D01*
X201695Y288999D01*
X200696D01*
X201695D01*
X202695Y287999D01*
Y287000D01*
X201695Y286000D01*
X199696D01*
X198696Y287000D01*
X68702Y26401D02*
Y32399D01*
X71702D01*
X72701Y31399D01*
Y29400D01*
X71702Y28400D01*
X68702D01*
X70702D02*
X72701Y26401D01*
X74700D02*
X76700D01*
X75700D01*
Y32399D01*
X74700Y31399D01*
X79699D02*
X80699Y32399D01*
X82698D01*
X83698Y31399D01*
Y27401D01*
X82698Y26401D01*
X80699D01*
X79699Y27401D01*
Y31399D01*
X256500Y158400D02*
Y164398D01*
X259499D01*
X260499Y163398D01*
Y161399D01*
X259499Y160399D01*
X256500D01*
X258499D02*
X260499Y158400D01*
X262498Y159400D02*
X263498Y158400D01*
X265497D01*
X266497Y159400D01*
Y163398D01*
X265497Y164398D01*
X263498D01*
X262498Y163398D01*
Y162399D01*
X263498Y161399D01*
X266497D01*
X272099Y215002D02*
X266101D01*
Y218001D01*
X267101Y219000D01*
X269100D01*
X270100Y218001D01*
Y215002D01*
Y217001D02*
X272099Y219000D01*
Y223999D02*
X266101D01*
X269100Y221000D01*
Y224998D01*
X263699Y214802D02*
X257701D01*
Y217801D01*
X258701Y218800D01*
X260700D01*
X261700Y217801D01*
Y214802D01*
Y216801D02*
X263699Y218800D01*
X258701Y220800D02*
X257701Y221799D01*
Y223799D01*
X258701Y224798D01*
X259700D01*
X260700Y223799D01*
Y222799D01*
Y223799D01*
X261700Y224798D01*
X262699D01*
X263699Y223799D01*
Y221799D01*
X262699Y220800D01*
X235500Y182400D02*
Y188398D01*
X238499D01*
X239499Y187398D01*
Y185399D01*
X238499Y184399D01*
X235500D01*
X237499D02*
X239499Y182400D01*
X245497D02*
X241498D01*
X245497Y186399D01*
Y187398D01*
X244497Y188398D01*
X242498D01*
X241498Y187398D01*
X280699Y214901D02*
X274701D01*
Y217900D01*
X275701Y218900D01*
X277700D01*
X278700Y217900D01*
Y214901D01*
Y216901D02*
X280699Y218900D01*
Y220899D02*
Y222899D01*
Y221899D01*
X274701D01*
X275701Y220899D01*
X364611Y230058D02*
Y236056D01*
X367610D01*
X368609Y235056D01*
Y233057D01*
X367610Y232057D01*
X364611D01*
X370609Y230058D02*
X372608D01*
X371609D01*
Y236056D01*
X370609Y235056D01*
X346750Y183348D02*
Y177350D01*
X350749D01*
X356747D02*
X352748D01*
X356747Y181349D01*
Y182348D01*
X355747Y183348D01*
X353748D01*
X352748Y182348D01*
X346750Y230548D02*
Y224550D01*
X350749D01*
X352748D02*
X354747D01*
X353748D01*
Y230548D01*
X352748Y229548D01*
X282799Y83899D02*
Y87897D01*
X279800D01*
Y85898D01*
Y87897D01*
X276801D01*
X282799Y81899D02*
X276801D01*
Y78900D01*
X277801Y77901D01*
X278800D01*
X279800Y78900D01*
Y81899D01*
Y78900D01*
X280800Y77901D01*
X281799D01*
X282799Y78900D01*
Y81899D01*
X276801Y72902D02*
X282799D01*
X279800Y75901D01*
Y71903D01*
X52601Y18599D02*
X48603D01*
Y15600D01*
X50602D01*
X48603D01*
Y12601D01*
X54601Y18599D02*
Y12601D01*
X57600D01*
X58599Y13601D01*
Y14600D01*
X57600Y15600D01*
X54601D01*
X57600D01*
X58599Y16600D01*
Y17599D01*
X57600Y18599D01*
X54601D01*
X64597Y12601D02*
X60599D01*
X64597Y16600D01*
Y17599D01*
X63598Y18599D01*
X61598D01*
X60599Y17599D01*
X52701Y27899D02*
X48702D01*
Y24900D01*
X50702D01*
X48702D01*
Y21901D01*
X54700Y27899D02*
Y21901D01*
X57699D01*
X58699Y22901D01*
Y23900D01*
X57699Y24900D01*
X54700D01*
X57699D01*
X58699Y25900D01*
Y26899D01*
X57699Y27899D01*
X54700D01*
X60698Y21901D02*
X62698D01*
X61698D01*
Y27899D01*
X60698Y26899D01*
X291199Y54298D02*
X285201D01*
Y51299D01*
X286201Y50300D01*
X290199D01*
X291199Y51299D01*
Y54298D01*
X290199Y48300D02*
X291199Y47301D01*
Y45301D01*
X290199Y44302D01*
X289200D01*
X288200Y45301D01*
Y46301D01*
Y45301D01*
X287200Y44302D01*
X286201D01*
X285201Y45301D01*
Y47301D01*
X286201Y48300D01*
X232100Y171998D02*
Y166000D01*
X235099D01*
X236099Y167000D01*
Y170998D01*
X235099Y171998D01*
X232100D01*
X242097Y166000D02*
X238098D01*
X242097Y169999D01*
Y170998D01*
X241097Y171998D01*
X239098D01*
X238098Y170998D01*
X307500Y206598D02*
Y200600D01*
X310499D01*
X311499Y201600D01*
Y205598D01*
X310499Y206598D01*
X307500D01*
X313498Y200600D02*
X315497D01*
X314498D01*
Y206598D01*
X313498Y205598D01*
X275199Y98998D02*
X274199Y99998D01*
X272200D01*
X271200Y98998D01*
Y95000D01*
X272200Y94000D01*
X274199D01*
X275199Y95000D01*
X277198Y98998D02*
X278198Y99998D01*
X280197D01*
X281197Y98998D01*
Y97999D01*
X280197Y96999D01*
X279197D01*
X280197D01*
X281197Y95999D01*
Y95000D01*
X280197Y94000D01*
X278198D01*
X277198Y95000D01*
X283196Y98998D02*
X284196Y99998D01*
X286195D01*
X287195Y98998D01*
Y95000D01*
X286195Y94000D01*
X284196D01*
X283196Y95000D01*
Y98998D01*
X63002Y191599D02*
X62002Y190599D01*
Y188600D01*
X63002Y187600D01*
X67000D01*
X68000Y188600D01*
Y190599D01*
X67000Y191599D01*
X68000Y197597D02*
Y193598D01*
X64001Y197597D01*
X63002D01*
X62002Y196597D01*
Y194598D01*
X63002Y193598D01*
X68000Y202595D02*
X62002D01*
X65001Y199596D01*
Y203595D01*
X29399Y57798D02*
X28399Y58798D01*
X26400D01*
X25400Y57798D01*
Y53800D01*
X26400Y52800D01*
X28399D01*
X29399Y53800D01*
X31398Y52800D02*
X33397D01*
X32398D01*
Y58798D01*
X31398Y57798D01*
X36396Y52800D02*
X38396D01*
X37396D01*
Y58798D01*
X36396Y57798D01*
X27399Y49598D02*
X26399Y50598D01*
X24400D01*
X23400Y49598D01*
Y45600D01*
X24400Y44600D01*
X26399D01*
X27399Y45600D01*
X29398Y44600D02*
X31397D01*
X30398D01*
Y50598D01*
X29398Y49598D01*
X34396D02*
X35396Y50598D01*
X37396D01*
X38395Y49598D01*
Y45600D01*
X37396Y44600D01*
X35396D01*
X34396Y45600D01*
Y49598D01*
X47499Y72898D02*
X46499Y73898D01*
X44500D01*
X43500Y72898D01*
Y68900D01*
X44500Y67900D01*
X46499D01*
X47499Y68900D01*
X49498D02*
X50498Y67900D01*
X52497D01*
X53497Y68900D01*
Y72898D01*
X52497Y73898D01*
X50498D01*
X49498Y72898D01*
Y71899D01*
X50498Y70899D01*
X53497D01*
X382349Y256048D02*
X381349Y257048D01*
X379350D01*
X378350Y256048D01*
Y252050D01*
X379350Y251050D01*
X381349D01*
X382349Y252050D01*
X384348Y257048D02*
X388347D01*
Y256048D01*
X384348Y252050D01*
Y251050D01*
X291899Y182698D02*
X290899Y183698D01*
X288900D01*
X287900Y182698D01*
Y178700D01*
X288900Y177700D01*
X290899D01*
X291899Y178700D01*
X296897Y177700D02*
Y183698D01*
X293898Y180699D01*
X297897D01*
X283800Y171799D02*
X282801Y172799D01*
X280801D01*
X279802Y171799D01*
Y167801D01*
X280801Y166801D01*
X282801D01*
X283800Y167801D01*
X285800Y171799D02*
X286799Y172799D01*
X288799D01*
X289798Y171799D01*
Y170800D01*
X288799Y169800D01*
X287799D01*
X288799D01*
X289798Y168800D01*
Y167801D01*
X288799Y166801D01*
X286799D01*
X285800Y167801D01*
X284000Y162999D02*
X283001Y163999D01*
X281001D01*
X280002Y162999D01*
Y159001D01*
X281001Y158001D01*
X283001D01*
X284000Y159001D01*
X289998Y158001D02*
X286000D01*
X289998Y162000D01*
Y162999D01*
X288999Y163999D01*
X286999D01*
X286000Y162999D01*
X247599Y207998D02*
X246599Y208998D01*
X244600D01*
X243600Y207998D01*
Y204000D01*
X244600Y203000D01*
X246599D01*
X247599Y204000D01*
X249598Y203000D02*
X251597D01*
X250598D01*
Y208998D01*
X249598Y207998D01*
D13*
X277151Y46289D02*
G03*
X277151Y46289I-100J0D01*
G01*
X274544Y182475D02*
Y183656D01*
Y197041D02*
Y198223D01*
X258796Y182475D02*
Y183656D01*
Y197041D02*
Y198223D01*
X273363Y182475D02*
X274544D01*
X273363Y198223D02*
X274544D01*
X258796Y182475D02*
X259977D01*
X258796Y198223D02*
X259977D01*
X18271Y283561D02*
Y285293D01*
X23783Y283561D02*
Y285293D01*
X24583Y247345D02*
Y249077D01*
X19071Y247345D02*
Y249077D01*
X424221Y260500D02*
Y360500D01*
X404379D02*
X424221D01*
X404379Y260500D02*
Y360500D01*
Y260500D02*
X424221D01*
X105332Y239750D02*
X109268D01*
X105332Y246050D02*
X109268D01*
X65667Y36973D02*
Y40910D01*
X57990Y36973D02*
Y40910D01*
X364684Y157000D02*
X386180D01*
X364684D02*
Y221016D01*
X386180D01*
X397991Y157000D02*
X426652D01*
Y221016D01*
X397991D02*
X426652D01*
X383823Y239857D02*
X389177D01*
X383823Y246943D02*
X389177D01*
D14*
X378357Y63290D02*
G03*
X378938Y63290I291J-74D01*
G01*
X346675Y218075D02*
G03*
X346675Y218075I-300J0D01*
G01*
Y170875D02*
G03*
X346675Y170875I-300J0D01*
G01*
X286666Y107394D02*
Y115086D01*
X291823D02*
X294715D01*
X299871Y107394D02*
Y115086D01*
X189087Y265115D02*
X191451D01*
X189087Y275186D02*
X191451D01*
X181380D02*
X183745D01*
X181380Y265115D02*
X183745D01*
X135550Y302600D02*
X136553D01*
X157250Y280900D02*
Y302600D01*
X156247D02*
X157250D01*
X135550Y280900D02*
Y302600D01*
Y280900D02*
X136553D01*
X156247D02*
X157250D01*
X294178Y17036D02*
Y24511D01*
X263678Y3811D02*
Y7364D01*
Y24511D02*
X265662D01*
X263678Y17036D02*
Y24511D01*
X292194D02*
X294178D01*
Y3811D02*
Y7364D01*
X263678Y3811D02*
X294178D01*
X376000Y76900D02*
X377095D01*
X387200Y63700D02*
Y76900D01*
X386105D02*
X387200D01*
X376000Y63700D02*
Y76900D01*
Y63700D02*
X377095D01*
X386105D02*
X387200D01*
X155923Y160241D02*
X158459D01*
X102341D02*
Y162777D01*
Y216359D02*
X104877D01*
X155923D02*
X158459D01*
Y160241D02*
Y162777D01*
X102341Y160241D02*
X104877D01*
X102341Y213823D02*
Y216359D01*
X158459Y213823D02*
Y216359D01*
X352025Y219750D02*
X356575D01*
X352025Y213250D02*
X356575D01*
X352025Y172550D02*
X356575D01*
X352025Y166050D02*
X356575D01*
D15*
X22000Y231379D02*
G03*
X22000Y231379I-246J0D01*
G01*
X21300Y269094D02*
G03*
X21300Y269094I-246J0D01*
G01*
D16*
X133035Y275350D02*
X136367Y278682D01*
Y275350D02*
X133035Y278682D01*
X134701Y275350D02*
Y278682D01*
X136367Y277016D02*
X133035D01*
X155665Y225850D02*
X152333Y222518D01*
Y225850D02*
X155665Y222518D01*
X153999Y225850D02*
Y222518D01*
X152333Y224184D02*
X155665D01*
M02*
