G04*
G04 #@! TF.GenerationSoftware,Altium Limited,Altium Designer,20.1.14 (287)*
G04*
G04 Layer_Physical_Order=1*
G04 Layer_Color=15238730*
%FSLAX25Y25*%
%MOIN*%
G70*
G04*
G04 #@! TF.SameCoordinates,46E05FB7-D2F1-4F7C-BBBD-68B76CC3C332*
G04*
G04*
G04 #@! TF.FilePolarity,Positive*
G04*
G01*
G75*
%ADD10C,0.00600*%
%ADD17R,0.02205X0.02362*%
%ADD18R,0.02362X0.02126*%
%ADD19R,0.03543X0.05118*%
%ADD20R,0.02126X0.02362*%
%ADD21R,0.02362X0.02205*%
%ADD22R,0.02362X0.03543*%
%ADD23R,0.02200X0.05800*%
%ADD24R,0.01575X0.01496*%
%ADD25R,0.07100X0.07500*%
%ADD26O,0.03900X0.07500*%
%ADD27O,0.04100X0.04900*%
%ADD28R,0.01600X0.05300*%
%ADD29R,0.14961X0.07992*%
%ADD30R,0.03661X0.03504*%
%ADD31R,0.05906X0.05118*%
%ADD32R,0.01968X0.03959*%
%ADD33R,0.01496X0.01575*%
%ADD34R,0.01772X0.01772*%
%ADD35R,0.05591X0.03622*%
%ADD36R,0.02559X0.02953*%
%ADD37R,0.04331X0.05591*%
%ADD38R,0.03543X0.02362*%
%ADD39R,0.01713X0.01024*%
%ADD40R,0.01713X0.01614*%
%ADD41R,0.05906X0.01181*%
%ADD42R,0.01181X0.05906*%
%ADD43R,0.03937X0.07087*%
%ADD45R,0.01614X0.01713*%
%ADD46R,0.01024X0.01713*%
G04:AMPARAMS|DCode=47|XSize=29.13mil|YSize=8.66mil|CornerRadius=0.26mil|HoleSize=0mil|Usage=FLASHONLY|Rotation=0.000|XOffset=0mil|YOffset=0mil|HoleType=Round|Shape=RoundedRectangle|*
%AMROUNDEDRECTD47*
21,1,0.02913,0.00814,0,0,0.0*
21,1,0.02861,0.00866,0,0,0.0*
1,1,0.00052,0.01431,-0.00407*
1,1,0.00052,-0.01431,-0.00407*
1,1,0.00052,-0.01431,0.00407*
1,1,0.00052,0.01431,0.00407*
%
%ADD47ROUNDEDRECTD47*%
G04:AMPARAMS|DCode=48|XSize=31.89mil|YSize=10.24mil|CornerRadius=1.28mil|HoleSize=0mil|Usage=FLASHONLY|Rotation=180.000|XOffset=0mil|YOffset=0mil|HoleType=Round|Shape=RoundedRectangle|*
%AMROUNDEDRECTD48*
21,1,0.03189,0.00768,0,0,180.0*
21,1,0.02933,0.01024,0,0,180.0*
1,1,0.00256,-0.01467,0.00384*
1,1,0.00256,0.01467,0.00384*
1,1,0.00256,0.01467,-0.00384*
1,1,0.00256,-0.01467,-0.00384*
%
%ADD48ROUNDEDRECTD48*%
G04:AMPARAMS|DCode=49|XSize=31.89mil|YSize=10.24mil|CornerRadius=1.28mil|HoleSize=0mil|Usage=FLASHONLY|Rotation=270.000|XOffset=0mil|YOffset=0mil|HoleType=Round|Shape=RoundedRectangle|*
%AMROUNDEDRECTD49*
21,1,0.03189,0.00768,0,0,270.0*
21,1,0.02933,0.01024,0,0,270.0*
1,1,0.00256,-0.00384,-0.01467*
1,1,0.00256,-0.00384,0.01467*
1,1,0.00256,0.00384,0.01467*
1,1,0.00256,0.00384,-0.01467*
%
%ADD49ROUNDEDRECTD49*%
%ADD50R,0.10236X0.10236*%
G04:AMPARAMS|DCode=51|XSize=16.54mil|YSize=12.21mil|CornerRadius=3.05mil|HoleSize=0mil|Usage=FLASHONLY|Rotation=90.000|XOffset=0mil|YOffset=0mil|HoleType=Round|Shape=RoundedRectangle|*
%AMROUNDEDRECTD51*
21,1,0.01654,0.00610,0,0,90.0*
21,1,0.01043,0.01221,0,0,90.0*
1,1,0.00610,0.00305,0.00522*
1,1,0.00610,0.00305,-0.00522*
1,1,0.00610,-0.00305,-0.00522*
1,1,0.00610,-0.00305,0.00522*
%
%ADD51ROUNDEDRECTD51*%
%ADD52R,0.03700X0.01600*%
%ADD53R,0.01200X0.01800*%
%ADD54R,0.04173X0.07165*%
%ADD55R,0.07992X0.14961*%
%ADD56R,0.03150X0.03150*%
%ADD73R,0.05906X0.04724*%
%ADD83R,0.02800X0.01400*%
%ADD103R,0.02677X0.00787*%
%ADD104R,0.00787X0.02677*%
%ADD105R,0.01200X0.02400*%
%ADD106C,0.05937*%
%ADD107R,0.05937X0.05937*%
%ADD108C,0.12795*%
%ADD109C,0.05504*%
%ADD110R,0.05504X0.05504*%
%ADD111C,0.09272*%
%ADD112C,0.02500*%
%ADD113C,0.05000*%
%ADD114C,0.02600*%
%ADD115C,0.02400*%
G36*
X294165Y14750D02*
Y9650D01*
X295365Y8450D01*
X289165D01*
Y15950D01*
X295365D01*
X294165Y14750D01*
D02*
G37*
G36*
X268690Y8450D02*
X262490D01*
X263690Y9650D01*
Y14750D01*
X262490Y15950D01*
X268690D01*
Y8450D01*
D02*
G37*
D10*
X405357Y278900D02*
G03*
X411351Y282081I-2181J11350D01*
G01*
X183000Y221500D02*
X222100Y260600D01*
X171453Y209953D02*
X183000Y221500D01*
X182931Y221568D02*
Y267001D01*
Y221568D02*
X183000Y221500D01*
X224800Y257400D02*
Y272300D01*
X176700Y209400D02*
X176800D01*
X224800Y257400D01*
X187400Y273635D02*
Y274580D01*
X187494Y274673D01*
X188382D01*
X37100Y152800D02*
Y156697D01*
X44667Y164264D01*
X25100Y219500D02*
X36189D01*
X44625Y211064D01*
X392361Y243245D02*
X392516Y243400D01*
X392361Y220762D02*
Y243245D01*
Y220762D02*
Y221016D01*
X149000Y328500D02*
Y333100D01*
X153100Y337200D01*
X148882Y325098D02*
X149000D01*
X148119Y324335D02*
X148882Y325098D01*
X148119Y324217D02*
Y324335D01*
X138900Y314998D02*
X148119Y324217D01*
X138900Y305900D02*
Y314998D01*
X316948Y10500D02*
X331000D01*
X302895D02*
X316948D01*
X309900Y17548D02*
Y41300D01*
Y17548D02*
X316948Y10500D01*
X398247Y41957D02*
Y69213D01*
Y41957D02*
X408304Y31900D01*
X413200D01*
X182200Y10000D02*
X185684D01*
X235272Y59587D01*
X272000D01*
X287200D02*
X325913D01*
X374652Y10000D02*
X375500D01*
X370955Y13696D02*
X374652Y10000D01*
X370955Y13696D02*
Y14545D01*
X325913Y59587D02*
X370955Y14545D01*
X281487Y20874D02*
Y34308D01*
Y20874D02*
X281987Y20374D01*
Y20060D02*
Y20374D01*
Y20060D02*
X285196Y16850D01*
X296545D01*
X302895Y10500D01*
X120817Y126011D02*
X120869Y125958D01*
X273809Y20874D02*
Y31291D01*
X229000Y10000D02*
X232484D01*
X242858Y20374D01*
X273309D01*
X273809Y20874D01*
X309900Y41300D02*
X310074Y41126D01*
X316595Y187498D02*
X317097Y186996D01*
X315571Y187498D02*
X316595D01*
X315438Y187631D02*
X315571Y187498D01*
X318004Y186996D02*
X319800Y185200D01*
X317097Y186996D02*
X318004D01*
X398500Y329600D02*
X413400D01*
X419300Y335500D01*
X120817Y126011D02*
X121100Y125727D01*
X296200Y80000D02*
Y85542D01*
X293747Y87995D02*
X296200Y85542D01*
X293747Y87995D02*
Y89020D01*
X297000D01*
Y96500D02*
Y105905D01*
X297009Y105914D01*
X369243Y120179D02*
X373143Y124080D01*
X382642Y58558D02*
X382700Y58500D01*
X382642Y58558D02*
Y65742D01*
X382584Y65800D02*
X382642Y65742D01*
X382584Y65800D02*
Y69316D01*
X381600Y70300D02*
X382584Y69316D01*
Y87438D02*
X382747Y87600D01*
X382584Y74800D02*
Y87438D01*
X391647Y68005D02*
Y72198D01*
X405687Y70000D02*
X406187Y70500D01*
X414400D01*
X384553Y74800D02*
X387068D01*
X389671Y72198D02*
X391647D01*
X379398Y62400D02*
X380616Y63618D01*
X369400Y62400D02*
X379398D01*
X398567Y134633D02*
X405400Y127800D01*
X398207Y70000D02*
Y70787D01*
X405400Y77980D01*
Y127800D01*
X398207Y69213D02*
Y70000D01*
X379620Y76900D02*
X380316Y76204D01*
X371447Y76900D02*
X379620D01*
X380316Y75100D02*
Y76204D01*
Y75100D02*
X380616Y74800D01*
X391647Y65800D02*
X394794D01*
X384553Y65800D02*
X384553Y65800D01*
X391647D01*
X387068Y74800D02*
X389671Y72198D01*
X380616Y63618D02*
Y65800D01*
X394794Y65800D02*
X398207Y69213D01*
X369348Y62348D02*
X369400Y62400D01*
X21754Y237284D02*
Y244274D01*
X21827D01*
Y252148D02*
X45152D01*
X87347Y209953D02*
X100085D01*
X45152Y252148D02*
X87347Y209953D01*
X82000Y193800D02*
X89468Y186331D01*
X81500Y193800D02*
X82000D01*
X82461Y190350D02*
X83753D01*
X84370Y180663D02*
X84400Y180634D01*
X84370Y180663D02*
Y184995D01*
X89468Y186331D02*
X100085D01*
X83334Y188575D02*
X83831D01*
X91708Y182395D02*
X102447D01*
X82221Y187461D02*
X83334Y188575D01*
X83831D02*
X91980Y180426D01*
X83753Y190350D02*
X91708Y182395D01*
X91980Y180426D02*
X100085D01*
X73311Y181200D02*
X82461Y190350D01*
X51945Y231955D02*
X52459Y232470D01*
X52770D01*
X93326Y196174D02*
X100085D01*
X86820Y196880D02*
X93432Y190269D01*
X86820Y196880D02*
Y196920D01*
X88100Y201400D02*
X93326Y196174D01*
X93432Y190269D02*
X100085D01*
X98700Y226400D02*
Y265606D01*
X409395Y275595D02*
X414009Y280209D01*
X386897Y146303D02*
X398567Y134633D01*
X392361Y165461D02*
X404200Y177300D01*
X398567Y208874D02*
Y227267D01*
X395900Y209844D02*
X404200Y201544D01*
X398567Y208874D02*
X405400Y202041D01*
X398567Y169970D02*
X405400Y176803D01*
X404200Y177300D02*
Y201544D01*
X398567Y227267D02*
X423600Y252300D01*
X405400Y176803D02*
Y202041D01*
X398567Y134633D02*
Y169970D01*
X423600Y252300D02*
Y276671D01*
X413168Y275595D02*
X416942Y279368D01*
X420902D02*
X423600Y276671D01*
X409395Y275595D02*
X413168D01*
X416942Y279368D02*
X420902D01*
X409300Y275500D02*
X409395Y275595D01*
X408639Y269369D02*
X414771Y275500D01*
X419300D01*
X265369Y269369D02*
X408639D01*
X192174Y196174D02*
X265369Y269369D01*
X419300Y355500D02*
X423169Y351631D01*
Y283898D02*
Y351631D01*
X419480Y280209D02*
X423169Y283898D01*
X414009Y280209D02*
X419480D01*
X160715Y204048D02*
X160967Y204300D01*
X188100D01*
X319300Y335500D01*
X409300D01*
X389000Y323300D02*
X392000Y326300D01*
X408500D01*
X346700Y299600D02*
X408871D01*
X188680Y202080D02*
X302100Y315500D01*
X160715Y202080D02*
X188680D01*
X372800Y302700D02*
X389100D01*
X394900Y278900D02*
X405299D01*
X393300Y280500D02*
X394900Y278900D01*
X405299D02*
X405357Y278900D01*
X390200Y346300D02*
X408500D01*
X190743Y198143D02*
X281968Y289369D01*
X160715Y198143D02*
X190743D01*
X378200Y309400D02*
X408671D01*
X189611Y200111D02*
X285000Y295500D01*
X373700Y283500D02*
X387700D01*
X389700Y285500D01*
X409300D01*
X336530Y355500D02*
X409300D01*
X160715Y206016D02*
X187046D01*
X336530Y355500D01*
X408500Y326300D02*
X409300Y325500D01*
X281968Y289369D02*
X408639D01*
X414771Y295500D01*
X419300D01*
X408871Y299600D02*
X414771Y305500D01*
X419300D01*
X302100Y315500D02*
X409300D01*
X389100Y302700D02*
X392200Y305800D01*
X409000D01*
X409300Y305500D01*
X408671Y309400D02*
X414771Y315500D01*
X419300D01*
X411351Y282081D02*
X414771Y285500D01*
X419300D01*
X408500Y346300D02*
X409300Y345500D01*
X285000Y295500D02*
X409300D01*
X160715Y196174D02*
X192174D01*
X160715Y200111D02*
X189611D01*
X178500Y318600D02*
X224800Y272300D01*
X211562Y280738D02*
X222100Y270200D01*
Y260600D02*
Y270200D01*
X188841Y278657D02*
Y280738D01*
X185525Y275341D02*
X188841Y278657D01*
X176092Y268576D02*
X182931D01*
X154022Y218615D02*
Y260322D01*
X138900Y271314D02*
X140300Y269914D01*
X138900Y271314D02*
Y277600D01*
X140300Y269400D02*
Y269914D01*
X153800Y270855D02*
Y277500D01*
Y270855D02*
X154820Y269834D01*
Y269320D02*
Y269834D01*
X153800Y277500D02*
X153900Y277600D01*
X115805Y194205D02*
X118800Y197200D01*
Y201500D01*
X100085Y194205D02*
X115805D01*
X112000Y176452D02*
Y180549D01*
X102447Y182395D02*
X102925Y181916D01*
X110632D01*
X112000Y180549D01*
X106589Y176489D02*
X108200Y178100D01*
Y178250D01*
X110547Y174998D02*
X112000Y176452D01*
X100085Y174521D02*
X102447D01*
X102925Y174998D02*
X110547D01*
X102447Y174521D02*
X102925Y174998D01*
X144700Y176300D02*
X160526D01*
X140500Y180500D02*
Y208700D01*
Y180500D02*
X144700Y176300D01*
X112981Y126011D02*
X120817D01*
X121100Y114800D02*
Y125727D01*
X106462Y202080D02*
X113321D01*
X113500Y201900D01*
X106283D02*
X106462Y202080D01*
X100265Y201900D02*
X106283D01*
X100085Y202080D02*
X100265Y201900D01*
X160526Y176300D02*
X160715Y176489D01*
X140200Y209000D02*
X140500Y208700D01*
X175600Y268084D02*
X175954Y268438D01*
X175600Y256700D02*
Y268084D01*
X126552Y292854D02*
X127000Y293302D01*
X125949Y292854D02*
X126552D01*
X98700Y265606D02*
X125949Y292854D01*
X100085Y176489D02*
X106589D01*
X140243Y209043D02*
Y218615D01*
X140200Y209000D02*
X140243Y209043D01*
X122500Y204900D02*
X122526Y204926D01*
Y218615D01*
X21027Y288364D02*
X31936D01*
X118800Y201500D01*
X124597Y210603D02*
Y218512D01*
Y210603D02*
X124700Y210500D01*
X100091Y200106D02*
X107177D01*
X107353Y199929D01*
X100085Y200111D02*
X100091Y200106D01*
X31629Y232111D02*
X31785Y231955D01*
X51945D01*
X100085Y206016D02*
X106717D01*
X106800Y206100D01*
X369243Y76900D02*
Y120179D01*
Y120589D01*
X297400Y133705D02*
X356127D01*
X369243Y120589D01*
X373143Y124080D02*
X381466D01*
X382486Y125100D01*
X383000D01*
X296300Y163900D02*
X296600Y164200D01*
X300800D01*
X318697Y146303D01*
X284681Y180320D02*
X300800Y164200D01*
X318697Y146303D02*
X386897D01*
X284681Y180320D02*
Y180435D01*
X282718Y182401D02*
X283481Y181638D01*
X284039Y180962D02*
X284154D01*
X283481Y181520D02*
Y181638D01*
Y181520D02*
X284039Y180962D01*
X282600Y182401D02*
X282718D01*
X284154Y180962D02*
X284681Y180435D01*
X245200Y185500D02*
X249995D01*
X250095Y185400D01*
X250103Y188200D02*
X251852Y186451D01*
X234400Y188200D02*
X250103D01*
X249357Y169000D02*
X249800Y169443D01*
Y175600D01*
X255813Y193301D02*
X258993D01*
X248684Y193816D02*
X251484D01*
X253967Y191333D01*
X258993D01*
X256380Y196800D02*
X257910Y195270D01*
X250372Y196800D02*
X256380D01*
X249913Y196341D02*
X250372Y196800D01*
X248684Y195784D02*
X249028D01*
X249585Y196341D01*
X249913D01*
X257910Y195270D02*
X258993D01*
X250400Y205200D02*
X251301Y204299D01*
X256900D01*
Y207701D02*
X257018D01*
X260154Y210837D01*
X261036D01*
X261400Y211200D01*
X268500Y206502D02*
Y209986D01*
X267800Y210686D02*
X268500Y209986D01*
X267800Y210686D02*
Y211200D01*
X266670Y190349D02*
X267654Y189364D01*
Y182671D02*
Y189364D01*
Y181589D02*
Y182671D01*
X267098Y181032D02*
X267654Y181589D01*
X267098Y180779D02*
Y181032D01*
X261819Y175500D02*
X267098Y180779D01*
X256000Y175500D02*
X261819D01*
X274347Y172042D02*
Y185427D01*
X21054Y258040D02*
Y271654D01*
X18132Y255118D02*
X21054Y258040D01*
X18132Y237560D02*
Y255118D01*
Y237560D02*
X21754Y233938D01*
X32390Y223301D01*
X36697D01*
X46748Y213250D01*
Y212849D02*
Y213250D01*
Y212849D02*
X48491Y211106D01*
X50572D01*
X155450Y188350D02*
X160665D01*
X152700Y191100D02*
X155450Y188350D01*
X160684Y186300D02*
X160715Y186331D01*
X148500Y186300D02*
X160684D01*
X160665Y188350D02*
X160715Y188300D01*
X163077Y194205D02*
X163555Y193728D01*
X164041D02*
X164268Y193500D01*
X163555Y193728D02*
X164041D01*
X164268Y193500D02*
X245056D01*
X245372Y193816D01*
X245717D01*
X229616Y195784D02*
X245717D01*
X229600Y195800D02*
X229616Y195784D01*
X215900Y198700D02*
X244465D01*
X244765Y199000D01*
X245717Y198048D01*
X170696Y189000D02*
X171200D01*
X169428Y190269D02*
X170696Y189000D01*
X160715Y190269D02*
X169428D01*
X147452Y172552D02*
X160715D01*
X144900Y170000D02*
X147452Y172552D01*
X89600Y144800D02*
Y149377D01*
X134337Y194114D02*
Y218615D01*
X89600Y149377D02*
X134337Y194114D01*
X63797Y40297D02*
Y118997D01*
X89600Y144800D01*
X150521Y178479D02*
X160694D01*
X150500Y178500D02*
X150521Y178479D01*
X160694D02*
X160715Y178457D01*
Y170583D02*
X171464D01*
X171547Y170500D01*
X148117Y135583D02*
Y157985D01*
X152344Y153856D02*
X159400Y146800D01*
X148117Y135583D02*
X154000Y129700D01*
X152344Y153856D02*
Y157694D01*
X152053Y157985D02*
X152344Y157694D01*
X285500Y78000D02*
X289528Y82029D01*
Y105914D01*
X287200Y65000D02*
X296300Y74100D01*
X287200Y63013D02*
Y65000D01*
X160424Y170293D02*
X160715Y170583D01*
X148117Y157985D02*
X148407Y158276D01*
X157577Y168324D02*
X160424D01*
X157577Y170293D02*
X160424D01*
X156862Y165034D02*
Y167610D01*
X157577Y168324D01*
X148407Y161123D02*
X157577Y170293D01*
X156862Y163715D02*
Y165034D01*
X148407Y158276D02*
Y161123D01*
X186615Y159185D02*
X192000Y153800D01*
X161392Y159185D02*
X186615D01*
X160424Y168324D02*
X160715Y168615D01*
X156862Y163715D02*
X161392Y159185D01*
X262387Y63013D02*
X272000D01*
X167415Y157985D02*
X262387Y63013D01*
X154022Y157985D02*
X167415D01*
X165655Y162100D02*
X173600D01*
X163077Y164678D02*
X165655Y162100D01*
X160715Y164678D02*
X163077D01*
X130400Y207114D02*
Y218615D01*
Y207114D02*
X131300Y206214D01*
Y205700D02*
Y206214D01*
X236100Y201200D02*
X263000D01*
X263680Y198064D02*
X263718Y198026D01*
X263680Y198064D02*
Y200520D01*
X263000Y201200D02*
X263680Y200520D01*
X160715Y207985D02*
X175285D01*
X176700Y209400D01*
X160715Y209953D02*
X171453D01*
X152313Y318600D02*
X178500D01*
X192266Y280738D02*
X211562D01*
X208155Y268700D02*
X218300D01*
X160715Y174521D02*
X193579D01*
X198600Y169500D01*
X160715Y176489D02*
X241868D01*
X249357Y169000D01*
X198600Y169500D02*
X239300D01*
X177453Y170500D02*
X184900D01*
X185150Y170250D01*
X160715Y166647D02*
X225954D01*
X229700Y162900D01*
X294600Y122300D02*
X310100D01*
X305813Y119900D02*
X312500D01*
X306000Y108500D02*
Y116287D01*
X305800Y116487D02*
X306000Y116287D01*
X293269Y106909D02*
Y120969D01*
Y105914D02*
Y106909D01*
X310100Y122300D02*
X312500Y119900D01*
X293269Y120969D02*
X294600Y122300D01*
X63797Y40084D02*
Y40297D01*
X50572Y172164D02*
Y179952D01*
X69604Y126501D02*
Y174029D01*
X62597Y68735D02*
Y119494D01*
X69604Y126501D01*
X50572Y187741D02*
Y195529D01*
X50253Y56391D02*
X62597Y68735D01*
X50572Y179952D02*
Y187741D01*
X50200Y56391D02*
Y62599D01*
X50253Y55800D02*
Y56391D01*
X103938Y208990D02*
Y212885D01*
X33242Y274146D02*
X42678D01*
X103938Y212885D01*
X25100Y237284D02*
X29741D01*
X29814Y237211D01*
X58392D02*
X87153Y208450D01*
X33239Y237211D02*
X58392D01*
X89200Y206180D02*
Y206300D01*
Y206180D02*
X96947Y198433D01*
X87153Y208450D02*
X90091D01*
X94493Y204048D01*
X96947Y198433D02*
X99795D01*
X89036Y211922D02*
X100085D01*
X31619Y269339D02*
X89036Y211922D01*
X94493Y204048D02*
X100085D01*
X31132Y269787D02*
X31580Y269339D01*
X31619D01*
X31132Y269787D02*
Y269827D01*
X99795Y198433D02*
X100085Y198143D01*
X100376Y208276D02*
X103223D01*
X100085Y207985D02*
X100376Y208276D01*
X32439Y274948D02*
Y275027D01*
Y274948D02*
X33242Y274146D01*
X103223Y208276D02*
X103938Y208990D01*
X127000Y301400D02*
X131500Y305900D01*
X138900D01*
X127000Y293302D02*
Y301400D01*
X112221Y232054D02*
Y242900D01*
X108747Y228579D02*
X112221Y232054D01*
X108747Y218615D02*
Y228579D01*
X102379Y225376D02*
Y242900D01*
Y225376D02*
X106778Y220977D01*
Y218615D02*
Y220977D01*
X279239Y66748D02*
Y105861D01*
X279200Y105900D02*
X279239Y105861D01*
X129700Y234800D02*
Y234862D01*
X118589Y218615D02*
Y223689D01*
X129700Y234800D01*
X136301Y226400D02*
X139100D01*
X112974Y222674D02*
X136000Y245700D01*
X120848Y222048D02*
X136700Y237900D01*
X120848Y218905D02*
Y222048D01*
X112974Y218905D02*
Y222674D01*
X120557Y218615D02*
X120848Y218905D01*
X260700Y219700D02*
X264304Y216095D01*
X110715Y225915D02*
X127200Y242400D01*
X110715Y218615D02*
Y225915D01*
X132369Y222468D02*
X136301Y226400D01*
X120869Y131864D02*
Y139715D01*
X120784Y139800D02*
X120869Y139715D01*
X112683Y218615D02*
X112974Y218905D01*
X207994Y268538D02*
X208155Y268700D01*
X132369Y218615D02*
Y222468D01*
X160715Y194205D02*
X163077D01*
X204461Y191552D02*
X245717D01*
X264304Y204300D02*
Y216095D01*
X229700Y162900D02*
X260000D01*
X263400Y166300D01*
Y171318D01*
X271592Y179509D02*
Y182671D01*
X263400Y171318D02*
X271592Y179509D01*
X267500Y171901D02*
X274110D01*
X261701Y172501D02*
X269623Y180423D01*
X261701Y171406D02*
Y172501D01*
X261500Y171205D02*
X261701Y171406D01*
X269623Y180423D02*
Y182671D01*
X251852Y185848D02*
X252300Y185400D01*
X251852Y185848D02*
Y186451D01*
X273800Y207625D02*
Y210886D01*
X271300Y213386D02*
X273800Y210886D01*
X271300Y213386D02*
Y213900D01*
X203776Y192237D02*
X204461Y191552D01*
X160715Y192237D02*
X203776D01*
X122526Y154111D02*
Y157985D01*
X134053Y139600D02*
Y142584D01*
X122526Y154111D02*
X134053Y142584D01*
X120557Y152142D02*
Y157985D01*
Y152142D02*
X128147Y144552D01*
Y139600D02*
Y144552D01*
X84400Y176500D02*
Y176697D01*
X85379Y177676D01*
X85576D01*
X86357Y178457D01*
X100085D01*
X84351Y168350D02*
X92490Y176489D01*
X100085D01*
X82221Y181407D02*
Y187461D01*
X81447Y180634D02*
X82221Y181407D01*
X68000Y181200D02*
X73311D01*
X60800Y174113D02*
X60879D01*
X66495Y179728D01*
X67119D01*
X68000Y180609D01*
Y181200D01*
X79118Y168350D02*
X84351D01*
X73440Y174029D02*
X79118Y168350D01*
X69604Y174029D02*
X73440D01*
X81300Y170500D02*
Y176353D01*
X50572Y164264D02*
X59957D01*
X69604Y173910D01*
X124495Y218615D02*
X124597Y218512D01*
X184862Y280738D02*
X188841D01*
X182000Y283600D02*
X184862Y280738D01*
X172491Y268500D02*
X172553Y268438D01*
X166800Y268500D02*
X172491D01*
X359763Y62248D02*
X365947D01*
X358914Y61400D02*
X359763Y62248D01*
X358400Y61400D02*
X358914D01*
X391647Y74402D02*
Y86433D01*
X392400Y87186D01*
Y87700D01*
X386148Y87600D02*
X386248Y87700D01*
X392400D01*
X305800Y119913D02*
X305813Y119900D01*
X379884Y242800D02*
X380484Y243400D01*
X370000Y242800D02*
X379884D01*
X355701Y206982D02*
Y207100D01*
Y206982D02*
X360200Y202483D01*
Y202200D02*
Y202483D01*
X355802Y159800D02*
X355900Y159702D01*
Y152500D02*
Y159702D01*
X341201Y184200D02*
X346000D01*
X348400Y181800D01*
X310128Y187666D02*
X310162Y187631D01*
X303134Y187666D02*
X310128D01*
X303100Y187700D02*
X303134Y187666D01*
X282600Y171800D02*
Y178999D01*
X267500Y168499D02*
X267900Y168099D01*
Y161100D02*
Y168099D01*
X114652Y163052D02*
X117500Y165900D01*
X114652Y157985D02*
Y163052D01*
X120557Y157985D02*
Y162843D01*
X117500Y165900D02*
X120557Y162843D01*
X120784Y139800D02*
Y147861D01*
X118589Y150057D02*
X120784Y147861D01*
X118589Y150057D02*
Y157985D01*
X113816Y139800D02*
Y147557D01*
X116621Y150361D01*
Y157985D01*
X81300Y176353D02*
X81447Y176500D01*
X62100Y181395D02*
Y188000D01*
X62000Y181295D02*
X62100Y181395D01*
X62000Y181295D02*
X62094Y181200D01*
X143368Y240733D02*
Y260233D01*
Y240733D02*
X144179Y239921D01*
Y218615D02*
Y239921D01*
X145632Y240585D02*
Y260233D01*
Y240585D02*
X146148Y240069D01*
Y218615D02*
Y240069D01*
X147600Y240585D02*
Y260233D01*
Y240585D02*
X148117Y240069D01*
Y218615D02*
Y240069D01*
X149864Y260233D02*
X149974Y260122D01*
Y218726D02*
Y260122D01*
Y218726D02*
X150085Y218615D01*
X211709Y182395D02*
X213927Y180177D01*
X160715Y182395D02*
X211709D01*
X211461Y184363D02*
X213153Y182671D01*
X160715Y180426D02*
X211981D01*
X213430Y178977D01*
X160715Y184363D02*
X211461D01*
X213927Y180177D02*
X262559D01*
X213153Y182671D02*
X261749D01*
X213430Y178977D02*
X263327D01*
X265474Y181124D01*
Y182460D01*
X265686Y182671D01*
X263161Y180779D02*
Y181032D01*
X263718Y181589D01*
X262559Y180177D02*
X263161Y180779D01*
X263718Y181589D02*
Y182671D01*
X188402Y271632D02*
X189806D01*
X191611Y268576D02*
X200476D01*
X192139Y269384D02*
Y270917D01*
X191424Y268669D02*
X192139Y269384D01*
X192366Y278657D02*
Y280638D01*
X200476Y268576D02*
X200513Y268538D01*
X187400Y266666D02*
Y267611D01*
X186383Y270150D02*
X187400Y269133D01*
X182931Y270150D02*
X186383D01*
X189900Y268669D02*
X191424D01*
X182931Y268576D02*
Y270150D01*
X191424Y271632D02*
X192139Y270917D01*
X189806Y271632D02*
X191424D01*
X189806D02*
X189900Y271725D01*
X187400Y267611D02*
Y269133D01*
X188382Y274673D02*
X192366Y278657D01*
X185431Y273635D02*
X185525Y273728D01*
Y275341D01*
X187400Y267611D02*
X188271Y268482D01*
X189806D01*
X189900Y268576D01*
X182931Y271725D02*
Y273300D01*
Y270150D02*
Y271725D01*
X192266Y280738D02*
X192366Y280638D01*
X175954Y268438D02*
X176092Y268576D01*
X113034Y131864D02*
X120869D01*
X112981Y131916D02*
X113034Y131864D01*
X50572Y164264D02*
Y172164D01*
X44625Y211064D02*
X44667Y211106D01*
X44667Y164264D02*
Y172164D01*
Y179952D01*
Y187741D01*
Y195529D01*
Y203317D01*
X44667Y203317D02*
Y211106D01*
X50572Y195529D02*
Y203317D01*
X50572Y203317D02*
Y211106D01*
X50572Y203317D02*
X50572Y203317D01*
X44667Y203317D02*
X44667Y203317D01*
X130900Y277600D02*
X138900D01*
X127000Y281500D02*
Y291098D01*
Y281500D02*
X130900Y277600D01*
X158500Y266500D02*
Y301300D01*
X149864Y263200D02*
X155200D01*
X158500Y266500D01*
X153900Y305900D02*
X158500Y301300D01*
X147600Y263200D02*
Y270665D01*
X150900Y273965D02*
Y280873D01*
X147600Y270665D02*
X150900Y273965D01*
X143368Y263200D02*
Y271581D01*
X141900Y273048D02*
X143368Y271581D01*
X141900Y273048D02*
Y302100D01*
X143900Y304100D01*
Y305900D01*
Y279400D02*
X145900Y281400D01*
X143900Y277600D02*
Y279400D01*
X150373Y281400D02*
X150900Y280873D01*
X145900Y281400D02*
X150373D01*
X145632Y272532D02*
X148900Y275800D01*
Y277600D01*
X145632Y263200D02*
Y272532D01*
X148900Y305900D02*
Y318587D01*
X148887Y318600D02*
X148900Y318587D01*
X281129Y51539D02*
Y54629D01*
X283280Y55580D02*
X283600Y55900D01*
X282080Y55580D02*
X283280D01*
X281129Y54629D02*
X282080Y55580D01*
X276334Y22758D02*
X276368Y22724D01*
X276334Y22758D02*
Y30966D01*
X276300Y31000D02*
X276334Y30966D01*
X288000Y33400D02*
Y39200D01*
X43800Y38600D02*
Y47053D01*
X44347Y47600D01*
X279459Y47741D02*
X288000Y39200D01*
X279459Y47741D02*
Y48639D01*
X284046Y29446D02*
X288000Y33400D01*
X284046Y22724D02*
Y29446D01*
X268600Y36500D02*
X273809Y31291D01*
X277189Y38605D02*
Y48939D01*
Y38605D02*
X281487Y34308D01*
X275689Y38408D02*
X278928Y35170D01*
Y22724D02*
Y35170D01*
X275689Y38408D02*
Y50212D01*
X279159Y48939D02*
X279459Y48639D01*
X276400Y55800D02*
Y57500D01*
X279160Y60339D02*
X279239D01*
X277708Y58887D02*
X279160Y60339D01*
X277708Y58808D02*
Y58887D01*
X276400Y57500D02*
X277708Y58808D01*
X277192Y51239D02*
Y51539D01*
X276892Y50939D02*
X277192Y51239D01*
X276417Y50939D02*
X276892D01*
X275061Y51539D02*
X277192D01*
X275689Y50212D02*
X276417Y50939D01*
X272000Y54600D02*
X275061Y51539D01*
X272000Y54600D02*
Y59587D01*
X279161Y60261D02*
X279239Y60339D01*
X279161Y51539D02*
Y60261D01*
X284039Y51539D02*
X287200Y54700D01*
X281129Y51539D02*
X284039D01*
X287200Y54700D02*
Y59587D01*
X365947Y62248D02*
Y62348D01*
X365183Y63111D02*
X365947Y62348D01*
X365183Y63111D02*
Y65643D01*
X361607Y69219D02*
Y69907D01*
X369348Y62248D02*
Y62348D01*
X369087Y69907D02*
X369348Y69646D01*
X369137Y69957D02*
X369347Y70167D01*
X369243Y76900D02*
X369347Y76795D01*
X361607Y69219D02*
X365183Y65643D01*
X369347Y70167D02*
Y76795D01*
X369348Y62348D02*
Y69646D01*
X316302Y195505D02*
X320106D01*
X322500Y197900D02*
Y206097D01*
X320106Y195505D02*
X322500Y197900D01*
X320701Y193404D02*
X323700Y196403D01*
Y205000D01*
X315571Y193404D02*
X320701D01*
X315438Y195505D02*
X316302D01*
X322500Y206097D02*
X326152Y209749D01*
X315438Y193537D02*
X315571Y193404D01*
X315305Y193670D02*
X315438Y193537D01*
X323700Y205000D02*
X325890Y207190D01*
X322400Y175350D02*
Y187000D01*
Y163700D02*
Y175350D01*
X316750Y181000D02*
X322400Y175350D01*
X315438Y189600D02*
X319800D01*
X322400Y187000D01*
X320177Y191569D02*
X323600Y188146D01*
Y166439D02*
Y188146D01*
X315438Y191569D02*
X320177D01*
X322400Y163700D02*
X326482Y159618D01*
X323600Y166439D02*
X327862Y162178D01*
X297900Y181000D02*
X316750D01*
X289536Y189364D02*
X297900Y181000D01*
X274347Y189364D02*
X289536D01*
X274347Y191333D02*
X289323D01*
X298295Y182361D02*
X311977D01*
X289323Y191333D02*
X298295Y182361D01*
X282600Y182401D02*
Y184364D01*
X279568Y187396D02*
X282600Y184364D01*
X274347Y187396D02*
X279568D01*
X295081Y198039D02*
X313661D01*
X315213Y195639D02*
Y196487D01*
X313661Y198039D02*
X315213Y196487D01*
X274347Y195270D02*
X292312D01*
X295081Y198039D01*
X311977Y196839D02*
X313051Y195764D01*
Y194745D02*
X314126Y193670D01*
X329000Y201241D02*
X332200Y204441D01*
Y212610D01*
X292041Y193301D02*
X295578Y196839D01*
X329012Y215799D02*
X332200Y212610D01*
X295578Y196839D02*
X311977D01*
X314126Y193670D02*
X315305D01*
X313051Y194745D02*
Y195764D01*
X274347Y193301D02*
X292041D01*
X311977Y182361D02*
X313000Y183385D01*
Y190309D02*
X314126Y191435D01*
X313000Y183385D02*
Y190309D01*
X315305Y191435D02*
X315438Y191569D01*
X314126Y191435D02*
X315305D01*
X325890Y207190D02*
X329012D01*
X326152Y209749D02*
X329012D01*
X279200Y105900D02*
X289515D01*
X289528Y105914D01*
X255657Y169000D02*
X261500D01*
X327862Y162178D02*
X328912D01*
X326482Y159618D02*
X328912D01*
X256900Y204299D02*
X256901Y204300D01*
X262100D01*
X392509Y190395D02*
X395865Y187039D01*
X389517Y190395D02*
X392509D01*
X388857Y191055D02*
X389517Y190395D01*
X392509Y175652D02*
X395865Y179008D01*
X389517Y175652D02*
X392509D01*
X388857Y174992D02*
X389517Y175652D01*
X352500Y186500D02*
X352800D01*
X349271Y189728D02*
X352500Y186500D01*
X358850Y167725D02*
X362525D01*
X377824Y183024D02*
X388857D01*
X362525Y167725D02*
X377824Y183024D01*
X358850Y170875D02*
X359550D01*
X383746Y195071D01*
X395865D01*
X341225Y189728D02*
X349271D01*
X341225Y195300D02*
X349400D01*
X352900Y198800D01*
X337799Y184200D02*
Y189728D01*
X328975Y170351D02*
Y184200D01*
X332400D02*
X337799D01*
X329000Y195300D02*
Y201241D01*
X329012Y215799D02*
Y217859D01*
X337800Y189728D02*
Y195300D01*
X332425D02*
X337800D01*
X337799Y189728D02*
X337800Y189728D01*
X328912Y170288D02*
X328975Y170351D01*
X392361Y220762D02*
X395900Y217223D01*
Y209844D02*
Y217223D01*
X392361Y157000D02*
Y165461D01*
X358850Y214925D02*
X373018D01*
X388857Y199087D01*
X358850Y218075D02*
X380892D01*
X395865Y203102D01*
X267500Y168499D02*
X271016D01*
X273568Y165947D01*
X274159D01*
Y171853D02*
X274347Y172042D01*
X274110Y171901D02*
X274159Y171853D01*
X273721Y204200D02*
X273800D01*
X269835Y200314D02*
X273721Y204200D01*
X269835Y198238D02*
Y200314D01*
X269623Y198026D02*
X269835Y198238D01*
X63797Y37800D02*
X64103Y37494D01*
X69694D01*
X69700Y37500D01*
X77000D01*
X44347Y55800D02*
X44500Y55953D01*
Y60100D01*
X46035Y61635D01*
Y61836D01*
X46798Y62599D01*
X44347Y47600D02*
Y55800D01*
X339900Y170288D02*
X340950D01*
X341537Y170875D01*
X349750D01*
X339900Y167729D02*
X339902Y167727D01*
X349748D01*
X349750Y167725D01*
X339900Y159618D02*
X352219D01*
X352400Y159800D01*
X340000Y215300D02*
X340187Y215113D01*
X349563D01*
X349750Y214925D01*
X340000Y217859D02*
X340108Y217967D01*
X349642D01*
X349750Y218075D01*
X340000Y207190D02*
X352209D01*
X352299Y207100D01*
X248684Y191552D02*
X251497D01*
X255653Y187396D01*
X258993D01*
X248684Y198048D02*
X261727D01*
X261749Y198026D01*
X268500Y201902D02*
Y204298D01*
X267654Y201056D02*
X268500Y201902D01*
X267654Y198026D02*
Y201056D01*
X264304Y202151D02*
Y204300D01*
Y202151D02*
X265686Y200770D01*
Y198026D02*
Y200770D01*
X258979Y185414D02*
X258993Y185427D01*
X252314Y185414D02*
X258979D01*
X252300Y185400D02*
X252314Y185414D01*
X305787Y116500D02*
X305800Y116487D01*
X297075Y116500D02*
X305787D01*
X297009Y116566D02*
X297075Y116500D01*
X279200Y111805D02*
Y123734D01*
X282020Y126554D01*
Y127341D01*
X288372Y111805D02*
X293269Y106909D01*
X279200Y111805D02*
X288372D01*
X289500Y116594D02*
Y127341D01*
Y116594D02*
X289528Y116566D01*
X286099Y132208D02*
Y135000D01*
X282020Y128129D02*
X286099Y132208D01*
X282020Y127341D02*
Y128129D01*
X289501Y127342D02*
Y135000D01*
X289500Y127341D02*
X289501Y127342D01*
X289500Y127341D02*
X297354D01*
X297400Y127295D01*
X50253Y47600D02*
Y55800D01*
X24827Y269827D02*
X28927D01*
X24434Y270219D02*
X24827Y269827D01*
X24434Y270219D02*
Y271619D01*
X24400Y271654D02*
X24434Y271619D01*
X24400Y275000D02*
X28987D01*
X29014Y275027D01*
X21027Y280490D02*
X21054Y280463D01*
Y275000D02*
Y280463D01*
X25451Y232111D02*
X29424D01*
X25100Y232462D02*
X25451Y232111D01*
X25100Y232462D02*
Y233938D01*
X50253Y42641D02*
Y47600D01*
Y37682D02*
Y42641D01*
X59860Y40084D02*
Y40297D01*
X59550Y40607D02*
X59860Y40297D01*
X59336Y40607D02*
X59550D01*
X57302Y42641D02*
X59336Y40607D01*
X50253Y42641D02*
X57302D01*
X61521Y36503D02*
Y37493D01*
X61828Y37800D01*
X50199Y31982D02*
X52162Y30019D01*
X55037D02*
X61521Y36503D01*
X50199Y31982D02*
Y32100D01*
X52162Y30019D02*
X55037D01*
X50199Y32100D02*
Y37628D01*
X50253Y37682D01*
X64112Y40613D02*
X70000D01*
X63797Y40297D02*
X64112Y40613D01*
X59840Y37820D02*
X59860Y37800D01*
X53601Y37628D02*
X53792Y37820D01*
X59840D01*
X53601Y37608D02*
Y37628D01*
Y32100D02*
Y36608D01*
D17*
X148887Y318600D02*
D03*
X152313D02*
D03*
X29014Y275027D02*
D03*
X32439D02*
D03*
X29814Y237211D02*
D03*
X33239D02*
D03*
X332400Y184200D02*
D03*
X328975D02*
D03*
X332425Y195300D02*
D03*
X329000D02*
D03*
X337800D02*
D03*
X341225D02*
D03*
X337800Y189728D02*
D03*
X341225D02*
D03*
X188841Y280738D02*
D03*
X192266D02*
D03*
D18*
X149000Y328500D02*
D03*
Y325098D02*
D03*
X256900Y204299D02*
D03*
Y207701D02*
D03*
X267500Y171901D02*
D03*
Y168499D02*
D03*
X282600Y182401D02*
D03*
Y178999D02*
D03*
D19*
X207994Y268538D02*
D03*
X200513D02*
D03*
X282020Y127341D02*
D03*
X289500D02*
D03*
X398207Y70000D02*
D03*
X405687D02*
D03*
X369087Y69907D02*
D03*
X361607D02*
D03*
D20*
X172553Y268438D02*
D03*
X175954D02*
D03*
X286099Y135000D02*
D03*
X289501D02*
D03*
X386148Y87600D02*
D03*
X382747D02*
D03*
X365947Y62248D02*
D03*
X369348D02*
D03*
X66203Y174029D02*
D03*
X69604D02*
D03*
X53601Y37628D02*
D03*
X50199D02*
D03*
X53601Y32100D02*
D03*
X50199D02*
D03*
X352400Y159800D02*
D03*
X355802D02*
D03*
X352299Y207100D02*
D03*
X355701D02*
D03*
X337799Y184200D02*
D03*
X341201D02*
D03*
X50200Y62599D02*
D03*
X46798D02*
D03*
D21*
X60800Y170687D02*
D03*
Y174113D02*
D03*
X272000Y63013D02*
D03*
Y59587D02*
D03*
X305800Y119913D02*
D03*
Y116487D02*
D03*
X273800Y207625D02*
D03*
Y204200D02*
D03*
X70000Y37187D02*
D03*
Y40613D02*
D03*
X287200Y59587D02*
D03*
Y63013D02*
D03*
D22*
X177453Y170500D02*
D03*
X171547D02*
D03*
X128147Y139600D02*
D03*
X134053D02*
D03*
X44667Y211106D02*
D03*
X50572D02*
D03*
X44667Y203317D02*
D03*
X50572D02*
D03*
X50572Y195529D02*
D03*
X44667D02*
D03*
X50572Y187741D02*
D03*
X44667D02*
D03*
X50572Y179952D02*
D03*
X44667D02*
D03*
X50572Y172164D02*
D03*
X44667D02*
D03*
X50572Y164264D02*
D03*
X44667D02*
D03*
X50253Y47600D02*
D03*
X44347D02*
D03*
X50253Y55800D02*
D03*
X44347D02*
D03*
X68000Y181200D02*
D03*
X62094D02*
D03*
D23*
X138900Y277600D02*
D03*
X143900D02*
D03*
X148900D02*
D03*
X153900D02*
D03*
Y305900D02*
D03*
X148900D02*
D03*
X143900D02*
D03*
X138900D02*
D03*
D24*
X127000Y293302D02*
D03*
Y291098D02*
D03*
X391647Y68005D02*
D03*
Y65800D02*
D03*
X268500Y204298D02*
D03*
Y206502D02*
D03*
X261500Y169000D02*
D03*
Y171205D02*
D03*
X391647Y72198D02*
D03*
Y74402D02*
D03*
D25*
X283455Y12200D02*
D03*
X274400D02*
D03*
D26*
X295365D02*
D03*
X262491D02*
D03*
D27*
X287687Y24011D02*
D03*
X270168D02*
D03*
D28*
X284046Y22724D02*
D03*
X281487D02*
D03*
X278928D02*
D03*
X276368D02*
D03*
X273809D02*
D03*
D29*
X331000Y10500D02*
D03*
X182200Y10000D02*
D03*
X375500D02*
D03*
X229000D02*
D03*
D30*
X297400Y127295D02*
D03*
Y133705D02*
D03*
X279239Y60339D02*
D03*
Y66748D02*
D03*
D31*
X297000Y96500D02*
D03*
Y89020D02*
D03*
D32*
X289528Y105914D02*
D03*
X293269D02*
D03*
X297009D02*
D03*
Y116566D02*
D03*
X289528D02*
D03*
D33*
X369243Y76900D02*
D03*
X371447D02*
D03*
X31132Y269827D02*
D03*
X28927D02*
D03*
X31629Y232111D02*
D03*
X29424D02*
D03*
X252300Y185400D02*
D03*
X250095D02*
D03*
X262100Y204300D02*
D03*
X264304D02*
D03*
D34*
X21754Y233938D02*
D03*
Y237284D02*
D03*
X25100D02*
D03*
Y233938D02*
D03*
X21054Y271654D02*
D03*
Y275000D02*
D03*
X24400D02*
D03*
Y271654D02*
D03*
D35*
X21027Y280490D02*
D03*
Y288364D02*
D03*
X21827Y252148D02*
D03*
Y244274D02*
D03*
D36*
X84400Y180634D02*
D03*
Y176500D02*
D03*
X81447D02*
D03*
Y180634D02*
D03*
D37*
X120784Y139800D02*
D03*
X113816D02*
D03*
D38*
X120869Y131864D02*
D03*
Y125958D02*
D03*
X112981Y131916D02*
D03*
Y126011D02*
D03*
X274159Y171853D02*
D03*
Y165947D02*
D03*
X279200Y105900D02*
D03*
Y111805D02*
D03*
D39*
X248684Y193816D02*
D03*
Y195784D02*
D03*
X245717D02*
D03*
Y193816D02*
D03*
D40*
X248684Y198048D02*
D03*
Y191552D02*
D03*
X245717D02*
D03*
Y198048D02*
D03*
D41*
X160715Y211922D02*
D03*
Y209953D02*
D03*
Y207985D02*
D03*
Y206016D02*
D03*
Y204048D02*
D03*
Y202080D02*
D03*
Y200111D02*
D03*
Y198143D02*
D03*
Y196174D02*
D03*
Y194205D02*
D03*
Y192237D02*
D03*
Y190269D02*
D03*
Y188300D02*
D03*
Y186331D02*
D03*
Y184363D02*
D03*
Y182395D02*
D03*
Y180426D02*
D03*
Y178457D02*
D03*
Y176489D02*
D03*
Y174521D02*
D03*
Y172552D02*
D03*
Y170583D02*
D03*
Y168615D02*
D03*
Y166647D02*
D03*
Y164678D02*
D03*
X100085D02*
D03*
Y166647D02*
D03*
Y168615D02*
D03*
Y170583D02*
D03*
Y172552D02*
D03*
Y174521D02*
D03*
Y176489D02*
D03*
Y178457D02*
D03*
Y180426D02*
D03*
Y182395D02*
D03*
Y184363D02*
D03*
Y186331D02*
D03*
Y188300D02*
D03*
Y190269D02*
D03*
Y192237D02*
D03*
Y194205D02*
D03*
Y196174D02*
D03*
Y198143D02*
D03*
Y200111D02*
D03*
Y202080D02*
D03*
Y204048D02*
D03*
Y206016D02*
D03*
Y207985D02*
D03*
Y209953D02*
D03*
Y211922D02*
D03*
D42*
X154022Y157985D02*
D03*
X152053D02*
D03*
X150085D02*
D03*
X148117D02*
D03*
X146148D02*
D03*
X144179D02*
D03*
X142211D02*
D03*
X140243D02*
D03*
X138274D02*
D03*
X136305D02*
D03*
X134337D02*
D03*
X132369D02*
D03*
X130400D02*
D03*
X128431D02*
D03*
X126463D02*
D03*
X124495D02*
D03*
X122526D02*
D03*
X120557D02*
D03*
X118589D02*
D03*
X116621D02*
D03*
X114652D02*
D03*
X112683D02*
D03*
X110715D02*
D03*
X108747D02*
D03*
X106778D02*
D03*
Y218615D02*
D03*
X108747D02*
D03*
X110715D02*
D03*
X112683D02*
D03*
X114652D02*
D03*
X116621D02*
D03*
X118589D02*
D03*
X120557D02*
D03*
X122526D02*
D03*
X124495D02*
D03*
X126463D02*
D03*
X128431D02*
D03*
X130400D02*
D03*
X132369D02*
D03*
X134337D02*
D03*
X136305D02*
D03*
X138274D02*
D03*
X140243D02*
D03*
X142211D02*
D03*
X144179D02*
D03*
X146148D02*
D03*
X148117D02*
D03*
X150085D02*
D03*
X152053D02*
D03*
X154022D02*
D03*
D43*
X112221Y242900D02*
D03*
X102379D02*
D03*
D45*
X143368Y260233D02*
D03*
X149864D02*
D03*
Y263200D02*
D03*
X143368D02*
D03*
D46*
X147600Y260233D02*
D03*
X145632D02*
D03*
Y263200D02*
D03*
X147600D02*
D03*
D47*
X315438Y195505D02*
D03*
Y193537D02*
D03*
Y191569D02*
D03*
Y189600D02*
D03*
Y187631D02*
D03*
Y185663D02*
D03*
Y183695D02*
D03*
X310162D02*
D03*
Y185663D02*
D03*
Y187631D02*
D03*
Y189600D02*
D03*
Y191569D02*
D03*
Y193537D02*
D03*
Y195505D02*
D03*
D48*
X258993Y185427D02*
D03*
Y187396D02*
D03*
Y189364D02*
D03*
Y191333D02*
D03*
Y193301D02*
D03*
Y195270D02*
D03*
X274347D02*
D03*
Y193301D02*
D03*
Y191333D02*
D03*
Y189364D02*
D03*
Y187396D02*
D03*
Y185427D02*
D03*
D49*
X271592Y182671D02*
D03*
X269623D02*
D03*
X267654D02*
D03*
X265686D02*
D03*
X263718D02*
D03*
X261749D02*
D03*
Y198026D02*
D03*
X263718D02*
D03*
X265686D02*
D03*
X267654D02*
D03*
X269623D02*
D03*
X271592D02*
D03*
D50*
X266670Y190349D02*
D03*
D51*
X59860Y40084D02*
D03*
X61828D02*
D03*
X63797D02*
D03*
Y37800D02*
D03*
X61828D02*
D03*
X59860D02*
D03*
D52*
X329012Y209749D02*
D03*
X340000Y215300D02*
D03*
Y217859D02*
D03*
Y207190D02*
D03*
X329012D02*
D03*
Y217859D02*
D03*
X328912Y162178D02*
D03*
X339900Y167729D02*
D03*
Y170288D02*
D03*
Y159618D02*
D03*
X328912D02*
D03*
Y170288D02*
D03*
D53*
X281129Y48939D02*
D03*
X277192Y51539D02*
D03*
X279161D02*
D03*
X281129D02*
D03*
X279159Y48939D02*
D03*
X277189D02*
D03*
D54*
X392516Y243400D02*
D03*
X380484D02*
D03*
D55*
X369447Y116900D02*
D03*
X413200Y31900D02*
D03*
D56*
X249357Y169000D02*
D03*
X255657D02*
D03*
D73*
X381600Y70300D02*
D03*
D83*
X358850Y218075D02*
D03*
Y214925D02*
D03*
X349750D02*
D03*
Y218075D02*
D03*
X358850Y170875D02*
D03*
Y167725D02*
D03*
X349750D02*
D03*
Y170875D02*
D03*
D103*
X189900Y267001D02*
D03*
Y268576D02*
D03*
Y270150D02*
D03*
Y271725D02*
D03*
Y273300D02*
D03*
X182931D02*
D03*
Y271725D02*
D03*
Y270150D02*
D03*
Y268576D02*
D03*
Y267001D02*
D03*
D104*
X187400Y273635D02*
D03*
X185431D02*
D03*
Y266666D02*
D03*
X187400D02*
D03*
D105*
X378647Y65800D02*
D03*
X380616D02*
D03*
X382584D02*
D03*
X384553D02*
D03*
Y74800D02*
D03*
X382584D02*
D03*
X380616D02*
D03*
X378647D02*
D03*
D106*
X419300Y355500D02*
D03*
Y345500D02*
D03*
Y335500D02*
D03*
Y325500D02*
D03*
Y315500D02*
D03*
Y305500D02*
D03*
Y295500D02*
D03*
Y285500D02*
D03*
Y275500D02*
D03*
Y265500D02*
D03*
X409300Y355500D02*
D03*
Y345500D02*
D03*
Y335500D02*
D03*
Y325500D02*
D03*
Y315500D02*
D03*
Y305500D02*
D03*
Y295500D02*
D03*
Y285500D02*
D03*
Y275500D02*
D03*
D107*
Y265500D02*
D03*
D108*
X405865Y164008D02*
D03*
Y214008D02*
D03*
D109*
X388857Y174992D02*
D03*
X395865Y179008D02*
D03*
X388857Y183024D02*
D03*
X395865Y187039D02*
D03*
X388857Y191055D02*
D03*
X395865Y195071D02*
D03*
X388857Y199087D02*
D03*
D110*
X395865Y203102D02*
D03*
D111*
X392361Y157000D02*
D03*
Y221016D02*
D03*
D112*
X37100Y152800D02*
D03*
X25100Y219500D02*
D03*
X153100Y337200D02*
D03*
X309900Y41300D02*
D03*
X296200Y80000D02*
D03*
X382700Y58500D02*
D03*
X319800Y185200D02*
D03*
X81500Y193800D02*
D03*
X84370Y184995D02*
D03*
X52770Y232470D02*
D03*
X88100Y201400D02*
D03*
X86820Y196920D02*
D03*
X98700Y265606D02*
D03*
X398500Y329600D02*
D03*
X154022Y260322D02*
D03*
X140300Y269400D02*
D03*
X154820Y269320D02*
D03*
X108200Y178250D02*
D03*
X121100Y114800D02*
D03*
X113500Y201900D02*
D03*
X175600Y256700D02*
D03*
X98700Y226400D02*
D03*
X127200Y242400D02*
D03*
X140200Y209000D02*
D03*
X122500Y204900D02*
D03*
X124700Y210500D02*
D03*
X107353Y199929D02*
D03*
X106800Y206100D02*
D03*
X383000Y125100D02*
D03*
X296300Y163900D02*
D03*
X282600Y171800D02*
D03*
X245200Y185500D02*
D03*
X234400Y188200D02*
D03*
X254600Y194000D02*
D03*
X249800Y175600D02*
D03*
X250400Y205200D02*
D03*
X261400Y211200D02*
D03*
X267800D02*
D03*
X256000Y175500D02*
D03*
X414400Y70500D02*
D03*
X152700Y191100D02*
D03*
X148500Y186300D02*
D03*
X229600Y195800D02*
D03*
X215900Y198700D02*
D03*
X171200Y189000D02*
D03*
X144900Y170000D02*
D03*
X150500Y178500D02*
D03*
X154000Y129700D02*
D03*
X285500Y78000D02*
D03*
X296300Y74100D02*
D03*
X192000Y153800D02*
D03*
X131300Y205700D02*
D03*
X236100Y201200D02*
D03*
X218300Y268700D02*
D03*
X185150Y170250D02*
D03*
X239300Y169500D02*
D03*
X306000Y108500D02*
D03*
X89200Y206300D02*
D03*
X159400Y146800D02*
D03*
X393300Y280500D02*
D03*
X346700Y299600D02*
D03*
X372800Y302700D02*
D03*
X373700Y283500D02*
D03*
X129700Y234862D02*
D03*
X136700Y237900D02*
D03*
X139100Y226400D02*
D03*
X136000Y245700D02*
D03*
X260700Y219700D02*
D03*
X378200Y309400D02*
D03*
X389000Y323300D02*
D03*
X390200Y346300D02*
D03*
X173600Y162100D02*
D03*
X271300Y213900D02*
D03*
X81300Y170500D02*
D03*
X182000Y283600D02*
D03*
X166800Y268500D02*
D03*
X358400Y61400D02*
D03*
X392400Y87700D02*
D03*
X370000Y242800D02*
D03*
X360200Y202200D02*
D03*
X355900Y152500D02*
D03*
X348400Y181800D02*
D03*
X303100Y187700D02*
D03*
X267900Y161100D02*
D03*
X117500Y165900D02*
D03*
X62100Y188000D02*
D03*
X276300Y31000D02*
D03*
X283600Y55900D02*
D03*
X268600Y36500D02*
D03*
X276400Y55800D02*
D03*
X352800Y186500D02*
D03*
X352900Y198800D02*
D03*
X312500Y119900D02*
D03*
D113*
X288000Y39200D02*
D03*
X43800Y38600D02*
D03*
X77000Y37500D02*
D03*
D114*
X270168Y23617D02*
Y24405D01*
X287687Y23617D02*
Y24405D01*
D115*
X295365Y10822D02*
Y13578D01*
X262491Y10822D02*
Y13578D01*
M02*
