G04*
G04 #@! TF.GenerationSoftware,Altium Limited,Altium Designer,20.1.14 (287)*
G04*
G04 Layer_Physical_Order=2*
G04 Layer_Color=36540*
%FSLAX25Y25*%
%MOIN*%
G70*
G04*
G04 #@! TF.SameCoordinates,46E05FB7-D2F1-4F7C-BBBD-68B76CC3C332*
G04*
G04*
G04 #@! TF.FilePolarity,Positive*
G04*
G01*
G75*
%ADD107R,0.05937X0.05937*%
%ADD112C,0.02500*%
%ADD113C,0.05000*%
%ADD114C,0.02600*%
%ADD115C,0.02400*%
G36*
X428369Y285000D02*
X428369Y95000D01*
X428369Y95000D01*
Y1631D01*
X1631D01*
Y378369D01*
X428369D01*
Y285000D01*
D02*
G37*
%LPC*%
G36*
X419300Y359099D02*
X418368Y358977D01*
X417500Y358617D01*
X416755Y358045D01*
X416183Y357300D01*
X415823Y356432D01*
X415701Y355500D01*
X415823Y354568D01*
X416183Y353700D01*
X416755Y352955D01*
X417500Y352383D01*
X418368Y352023D01*
X419300Y351901D01*
X420232Y352023D01*
X421100Y352383D01*
X421845Y352955D01*
X422417Y353700D01*
X422777Y354568D01*
X422899Y355500D01*
X422777Y356432D01*
X422417Y357300D01*
X421845Y358045D01*
X421100Y358617D01*
X420232Y358977D01*
X419300Y359099D01*
D02*
G37*
G36*
X409300D02*
X408368Y358977D01*
X407500Y358617D01*
X406755Y358045D01*
X406183Y357300D01*
X405823Y356432D01*
X405701Y355500D01*
X405823Y354568D01*
X406183Y353700D01*
X406755Y352955D01*
X407500Y352383D01*
X408368Y352023D01*
X409300Y351901D01*
X410232Y352023D01*
X411100Y352383D01*
X411845Y352955D01*
X412417Y353700D01*
X412777Y354568D01*
X412899Y355500D01*
X412777Y356432D01*
X412417Y357300D01*
X411845Y358045D01*
X411100Y358617D01*
X410232Y358977D01*
X409300Y359099D01*
D02*
G37*
G36*
X390200Y348186D02*
X389478Y348043D01*
X388866Y347634D01*
X388457Y347022D01*
X388314Y346300D01*
X388457Y345578D01*
X388866Y344966D01*
X389478Y344557D01*
X390200Y344414D01*
X390922Y344557D01*
X391534Y344966D01*
X391943Y345578D01*
X392086Y346300D01*
X391943Y347022D01*
X391534Y347634D01*
X390922Y348043D01*
X390200Y348186D01*
D02*
G37*
G36*
X419300Y349099D02*
X418368Y348977D01*
X417500Y348617D01*
X416755Y348045D01*
X416183Y347300D01*
X415823Y346432D01*
X415701Y345500D01*
X415823Y344568D01*
X416183Y343700D01*
X416755Y342955D01*
X417500Y342383D01*
X418368Y342023D01*
X419300Y341901D01*
X420232Y342023D01*
X421100Y342383D01*
X421845Y342955D01*
X422417Y343700D01*
X422777Y344568D01*
X422899Y345500D01*
X422777Y346432D01*
X422417Y347300D01*
X421845Y348045D01*
X421100Y348617D01*
X420232Y348977D01*
X419300Y349099D01*
D02*
G37*
G36*
X409300D02*
X408368Y348977D01*
X407500Y348617D01*
X406755Y348045D01*
X406183Y347300D01*
X405823Y346432D01*
X405701Y345500D01*
X405823Y344568D01*
X406183Y343700D01*
X406755Y342955D01*
X407500Y342383D01*
X408368Y342023D01*
X409300Y341901D01*
X410232Y342023D01*
X411100Y342383D01*
X411845Y342955D01*
X412417Y343700D01*
X412777Y344568D01*
X412899Y345500D01*
X412777Y346432D01*
X412417Y347300D01*
X411845Y348045D01*
X411100Y348617D01*
X410232Y348977D01*
X409300Y349099D01*
D02*
G37*
G36*
X419300Y339099D02*
X418368Y338977D01*
X417500Y338617D01*
X416755Y338045D01*
X416183Y337300D01*
X415823Y336432D01*
X415701Y335500D01*
X415823Y334568D01*
X416183Y333700D01*
X416755Y332955D01*
X417500Y332383D01*
X418368Y332023D01*
X419300Y331901D01*
X420232Y332023D01*
X421100Y332383D01*
X421845Y332955D01*
X422417Y333700D01*
X422777Y334568D01*
X422899Y335500D01*
X422777Y336432D01*
X422417Y337300D01*
X421845Y338045D01*
X421100Y338617D01*
X420232Y338977D01*
X419300Y339099D01*
D02*
G37*
G36*
X409300D02*
X408368Y338977D01*
X407500Y338617D01*
X406755Y338045D01*
X406183Y337300D01*
X405823Y336432D01*
X405701Y335500D01*
X405823Y334568D01*
X406183Y333700D01*
X406755Y332955D01*
X407500Y332383D01*
X408368Y332023D01*
X409300Y331901D01*
X410232Y332023D01*
X411100Y332383D01*
X411845Y332955D01*
X412417Y333700D01*
X412777Y334568D01*
X412899Y335500D01*
X412777Y336432D01*
X412417Y337300D01*
X411845Y338045D01*
X411100Y338617D01*
X410232Y338977D01*
X409300Y339099D01*
D02*
G37*
G36*
X398500Y331486D02*
X397778Y331343D01*
X397166Y330934D01*
X396757Y330322D01*
X396614Y329600D01*
X396757Y328878D01*
X397166Y328266D01*
X397778Y327857D01*
X398500Y327714D01*
X399222Y327857D01*
X399834Y328266D01*
X400243Y328878D01*
X400386Y329600D01*
X400243Y330322D01*
X399834Y330934D01*
X399222Y331343D01*
X398500Y331486D01*
D02*
G37*
G36*
X419300Y329099D02*
X418368Y328977D01*
X417500Y328617D01*
X416755Y328045D01*
X416183Y327300D01*
X415823Y326432D01*
X415701Y325500D01*
X415823Y324568D01*
X416183Y323700D01*
X416755Y322955D01*
X417500Y322383D01*
X418368Y322023D01*
X419300Y321901D01*
X420232Y322023D01*
X421100Y322383D01*
X421845Y322955D01*
X422417Y323700D01*
X422777Y324568D01*
X422899Y325500D01*
X422777Y326432D01*
X422417Y327300D01*
X421845Y328045D01*
X421100Y328617D01*
X420232Y328977D01*
X419300Y329099D01*
D02*
G37*
G36*
X409300D02*
X408368Y328977D01*
X407500Y328617D01*
X406755Y328045D01*
X406183Y327300D01*
X405823Y326432D01*
X405701Y325500D01*
X405823Y324568D01*
X406183Y323700D01*
X406755Y322955D01*
X407500Y322383D01*
X408368Y322023D01*
X409300Y321901D01*
X410232Y322023D01*
X411100Y322383D01*
X411845Y322955D01*
X412417Y323700D01*
X412777Y324568D01*
X412899Y325500D01*
X412777Y326432D01*
X412417Y327300D01*
X411845Y328045D01*
X411100Y328617D01*
X410232Y328977D01*
X409300Y329099D01*
D02*
G37*
G36*
X389000Y325186D02*
X388278Y325043D01*
X387666Y324634D01*
X387257Y324022D01*
X387114Y323300D01*
X387257Y322578D01*
X387666Y321966D01*
X388278Y321557D01*
X389000Y321414D01*
X389722Y321557D01*
X390334Y321966D01*
X390743Y322578D01*
X390886Y323300D01*
X390743Y324022D01*
X390334Y324634D01*
X389722Y325043D01*
X389000Y325186D01*
D02*
G37*
G36*
X419300Y319099D02*
X418368Y318977D01*
X417500Y318617D01*
X416755Y318045D01*
X416183Y317300D01*
X415823Y316432D01*
X415701Y315500D01*
X415823Y314568D01*
X416183Y313700D01*
X416755Y312955D01*
X417500Y312383D01*
X418368Y312023D01*
X419300Y311901D01*
X420232Y312023D01*
X421100Y312383D01*
X421845Y312955D01*
X422417Y313700D01*
X422777Y314568D01*
X422899Y315500D01*
X422777Y316432D01*
X422417Y317300D01*
X421845Y318045D01*
X421100Y318617D01*
X420232Y318977D01*
X419300Y319099D01*
D02*
G37*
G36*
X409300D02*
X408368Y318977D01*
X407500Y318617D01*
X406755Y318045D01*
X406183Y317300D01*
X405823Y316432D01*
X405701Y315500D01*
X405823Y314568D01*
X406183Y313700D01*
X406755Y312955D01*
X407500Y312383D01*
X408368Y312023D01*
X409300Y311901D01*
X410232Y312023D01*
X411100Y312383D01*
X411845Y312955D01*
X412417Y313700D01*
X412777Y314568D01*
X412899Y315500D01*
X412777Y316432D01*
X412417Y317300D01*
X411845Y318045D01*
X411100Y318617D01*
X410232Y318977D01*
X409300Y319099D01*
D02*
G37*
G36*
X378200Y311286D02*
X377478Y311143D01*
X376866Y310734D01*
X376457Y310122D01*
X376314Y309400D01*
X376457Y308678D01*
X376866Y308066D01*
X377478Y307657D01*
X378200Y307514D01*
X378922Y307657D01*
X379534Y308066D01*
X379943Y308678D01*
X380086Y309400D01*
X379943Y310122D01*
X379534Y310734D01*
X378922Y311143D01*
X378200Y311286D01*
D02*
G37*
G36*
X419300Y309099D02*
X418368Y308977D01*
X417500Y308617D01*
X416755Y308045D01*
X416183Y307300D01*
X415823Y306432D01*
X415701Y305500D01*
X415823Y304568D01*
X416183Y303700D01*
X416755Y302955D01*
X417500Y302383D01*
X418368Y302023D01*
X419300Y301901D01*
X420232Y302023D01*
X421100Y302383D01*
X421845Y302955D01*
X422417Y303700D01*
X422777Y304568D01*
X422899Y305500D01*
X422777Y306432D01*
X422417Y307300D01*
X421845Y308045D01*
X421100Y308617D01*
X420232Y308977D01*
X419300Y309099D01*
D02*
G37*
G36*
X409300D02*
X408368Y308977D01*
X407500Y308617D01*
X406755Y308045D01*
X406183Y307300D01*
X405823Y306432D01*
X405701Y305500D01*
X405823Y304568D01*
X406183Y303700D01*
X406755Y302955D01*
X407500Y302383D01*
X408368Y302023D01*
X409300Y301901D01*
X410232Y302023D01*
X411100Y302383D01*
X411845Y302955D01*
X412417Y303700D01*
X412777Y304568D01*
X412899Y305500D01*
X412777Y306432D01*
X412417Y307300D01*
X411845Y308045D01*
X411100Y308617D01*
X410232Y308977D01*
X409300Y309099D01*
D02*
G37*
G36*
X372800Y304586D02*
X372078Y304443D01*
X371466Y304034D01*
X371057Y303422D01*
X370914Y302700D01*
X371057Y301978D01*
X371466Y301366D01*
X372078Y300957D01*
X372800Y300814D01*
X373522Y300957D01*
X374134Y301366D01*
X374543Y301978D01*
X374686Y302700D01*
X374543Y303422D01*
X374134Y304034D01*
X373522Y304443D01*
X372800Y304586D01*
D02*
G37*
G36*
X346700Y301486D02*
X345978Y301343D01*
X345366Y300934D01*
X344957Y300322D01*
X344814Y299600D01*
X344957Y298878D01*
X345366Y298266D01*
X345978Y297857D01*
X346700Y297714D01*
X347422Y297857D01*
X348034Y298266D01*
X348443Y298878D01*
X348586Y299600D01*
X348443Y300322D01*
X348034Y300934D01*
X347422Y301343D01*
X346700Y301486D01*
D02*
G37*
G36*
X419300Y299099D02*
X418368Y298977D01*
X417500Y298617D01*
X416755Y298045D01*
X416183Y297300D01*
X415823Y296432D01*
X415701Y295500D01*
X415823Y294568D01*
X416183Y293700D01*
X416755Y292955D01*
X417500Y292383D01*
X418368Y292023D01*
X419300Y291901D01*
X420232Y292023D01*
X421100Y292383D01*
X421845Y292955D01*
X422417Y293700D01*
X422777Y294568D01*
X422899Y295500D01*
X422777Y296432D01*
X422417Y297300D01*
X421845Y298045D01*
X421100Y298617D01*
X420232Y298977D01*
X419300Y299099D01*
D02*
G37*
G36*
X409300D02*
X408368Y298977D01*
X407500Y298617D01*
X406755Y298045D01*
X406183Y297300D01*
X405823Y296432D01*
X405701Y295500D01*
X405823Y294568D01*
X406183Y293700D01*
X406755Y292955D01*
X407500Y292383D01*
X408368Y292023D01*
X409300Y291901D01*
X410232Y292023D01*
X411100Y292383D01*
X411845Y292955D01*
X412417Y293700D01*
X412777Y294568D01*
X412899Y295500D01*
X412777Y296432D01*
X412417Y297300D01*
X411845Y298045D01*
X411100Y298617D01*
X410232Y298977D01*
X409300Y299099D01*
D02*
G37*
G36*
X419300Y289099D02*
X418368Y288977D01*
X417500Y288617D01*
X416755Y288045D01*
X416183Y287300D01*
X415823Y286432D01*
X415701Y285500D01*
X415823Y284568D01*
X416183Y283700D01*
X416755Y282955D01*
X417500Y282383D01*
X418368Y282023D01*
X419300Y281901D01*
X420232Y282023D01*
X421100Y282383D01*
X421845Y282955D01*
X422417Y283700D01*
X422777Y284568D01*
X422899Y285500D01*
X422777Y286432D01*
X422417Y287300D01*
X421845Y288045D01*
X421100Y288617D01*
X420232Y288977D01*
X419300Y289099D01*
D02*
G37*
G36*
X409300D02*
X408368Y288977D01*
X407500Y288617D01*
X406755Y288045D01*
X406183Y287300D01*
X405823Y286432D01*
X405701Y285500D01*
X405823Y284568D01*
X406183Y283700D01*
X406755Y282955D01*
X407500Y282383D01*
X408368Y282023D01*
X409300Y281901D01*
X410232Y282023D01*
X411100Y282383D01*
X411845Y282955D01*
X412417Y283700D01*
X412777Y284568D01*
X412899Y285500D01*
X412777Y286432D01*
X412417Y287300D01*
X411845Y288045D01*
X411100Y288617D01*
X410232Y288977D01*
X409300Y289099D01*
D02*
G37*
G36*
X373700Y285386D02*
X372978Y285243D01*
X372366Y284834D01*
X371957Y284222D01*
X371814Y283500D01*
X371957Y282778D01*
X372366Y282166D01*
X372978Y281757D01*
X373700Y281614D01*
X374422Y281757D01*
X375034Y282166D01*
X375443Y282778D01*
X375586Y283500D01*
X375443Y284222D01*
X375034Y284834D01*
X374422Y285243D01*
X373700Y285386D01*
D02*
G37*
G36*
X393300Y282386D02*
X392578Y282243D01*
X391966Y281834D01*
X391557Y281222D01*
X391414Y280500D01*
X391557Y279778D01*
X391966Y279166D01*
X392578Y278757D01*
X393300Y278614D01*
X394022Y278757D01*
X394634Y279166D01*
X395043Y279778D01*
X395186Y280500D01*
X395043Y281222D01*
X394634Y281834D01*
X394022Y282243D01*
X393300Y282386D01*
D02*
G37*
G36*
X419300Y279099D02*
X418368Y278977D01*
X417500Y278617D01*
X416755Y278045D01*
X416183Y277300D01*
X415823Y276432D01*
X415701Y275500D01*
X415823Y274568D01*
X416183Y273700D01*
X416755Y272955D01*
X417500Y272383D01*
X418368Y272023D01*
X419300Y271901D01*
X420232Y272023D01*
X421100Y272383D01*
X421845Y272955D01*
X422417Y273700D01*
X422777Y274568D01*
X422899Y275500D01*
X422777Y276432D01*
X422417Y277300D01*
X421845Y278045D01*
X421100Y278617D01*
X420232Y278977D01*
X419300Y279099D01*
D02*
G37*
G36*
X409300D02*
X408368Y278977D01*
X407500Y278617D01*
X406755Y278045D01*
X406183Y277300D01*
X405823Y276432D01*
X405701Y275500D01*
X405823Y274568D01*
X406183Y273700D01*
X406755Y272955D01*
X407500Y272383D01*
X408368Y272023D01*
X409300Y271901D01*
X410232Y272023D01*
X411100Y272383D01*
X411845Y272955D01*
X412417Y273700D01*
X412777Y274568D01*
X412899Y275500D01*
X412777Y276432D01*
X412417Y277300D01*
X411845Y278045D01*
X411100Y278617D01*
X410232Y278977D01*
X409300Y279099D01*
D02*
G37*
G36*
X140300Y271286D02*
X139578Y271143D01*
X138966Y270734D01*
X138557Y270122D01*
X138414Y269400D01*
X138557Y268678D01*
X138966Y268066D01*
X139578Y267657D01*
X140300Y267514D01*
X141022Y267657D01*
X141634Y268066D01*
X142043Y268678D01*
X142186Y269400D01*
X142043Y270122D01*
X141634Y270734D01*
X141022Y271143D01*
X140300Y271286D01*
D02*
G37*
G36*
X98700Y267492D02*
X97978Y267349D01*
X97366Y266940D01*
X96957Y266328D01*
X96814Y265606D01*
X96957Y264884D01*
X97366Y264272D01*
X97978Y263863D01*
X98700Y263720D01*
X99422Y263863D01*
X100034Y264272D01*
X100443Y264884D01*
X100586Y265606D01*
X100443Y266328D01*
X100034Y266940D01*
X99422Y267349D01*
X98700Y267492D01*
D02*
G37*
G36*
X419300Y269099D02*
X418368Y268977D01*
X417500Y268617D01*
X416755Y268045D01*
X416183Y267300D01*
X415823Y266432D01*
X415701Y265500D01*
X415823Y264568D01*
X416183Y263700D01*
X416755Y262955D01*
X417500Y262383D01*
X418368Y262023D01*
X419300Y261901D01*
X420232Y262023D01*
X421100Y262383D01*
X421845Y262955D01*
X422417Y263700D01*
X422777Y264568D01*
X422899Y265500D01*
X422777Y266432D01*
X422417Y267300D01*
X421845Y268045D01*
X421100Y268617D01*
X420232Y268977D01*
X419300Y269099D01*
D02*
G37*
G36*
X154022Y262208D02*
X153300Y262065D01*
X152688Y261656D01*
X152279Y261044D01*
X152136Y260322D01*
X152279Y259600D01*
X152688Y258988D01*
X153300Y258579D01*
X154022Y258436D01*
X154744Y258579D01*
X155356Y258988D01*
X155765Y259600D01*
X155908Y260322D01*
X155765Y261044D01*
X155356Y261656D01*
X154744Y262065D01*
X154022Y262208D01*
D02*
G37*
G36*
X175600Y258586D02*
X174878Y258443D01*
X174266Y258034D01*
X173857Y257422D01*
X173714Y256700D01*
X173857Y255978D01*
X174266Y255366D01*
X174878Y254957D01*
X175600Y254814D01*
X176322Y254957D01*
X176934Y255366D01*
X177343Y255978D01*
X177486Y256700D01*
X177343Y257422D01*
X176934Y258034D01*
X176322Y258443D01*
X175600Y258586D01*
D02*
G37*
G36*
X136000Y247586D02*
X135278Y247443D01*
X134666Y247034D01*
X134257Y246422D01*
X134114Y245700D01*
X134257Y244978D01*
X134666Y244366D01*
X135278Y243957D01*
X136000Y243814D01*
X136722Y243957D01*
X137334Y244366D01*
X137743Y244978D01*
X137886Y245700D01*
X137743Y246422D01*
X137334Y247034D01*
X136722Y247443D01*
X136000Y247586D01*
D02*
G37*
G36*
X127200Y244286D02*
X126478Y244143D01*
X125866Y243734D01*
X125457Y243122D01*
X125314Y242400D01*
X125457Y241678D01*
X125866Y241066D01*
X126478Y240657D01*
X127200Y240514D01*
X127922Y240657D01*
X128534Y241066D01*
X128943Y241678D01*
X129086Y242400D01*
X128943Y243122D01*
X128534Y243734D01*
X127922Y244143D01*
X127200Y244286D01*
D02*
G37*
G36*
X136700Y239786D02*
X135978Y239643D01*
X135366Y239234D01*
X134957Y238622D01*
X134814Y237900D01*
X134957Y237178D01*
X135366Y236566D01*
X135978Y236157D01*
X136700Y236014D01*
X137422Y236157D01*
X138034Y236566D01*
X138443Y237178D01*
X138586Y237900D01*
X138443Y238622D01*
X138034Y239234D01*
X137422Y239643D01*
X136700Y239786D01*
D02*
G37*
G36*
X129700Y236749D02*
X128978Y236605D01*
X128366Y236196D01*
X127957Y235584D01*
X127814Y234862D01*
X127957Y234141D01*
X128366Y233529D01*
X128978Y233120D01*
X129700Y232976D01*
X130422Y233120D01*
X131034Y233529D01*
X131443Y234141D01*
X131586Y234862D01*
X131443Y235584D01*
X131034Y236196D01*
X130422Y236605D01*
X129700Y236749D01*
D02*
G37*
G36*
X52770Y234356D02*
X52048Y234213D01*
X51437Y233804D01*
X51028Y233192D01*
X50884Y232470D01*
X51028Y231748D01*
X51437Y231136D01*
X52048Y230728D01*
X52770Y230584D01*
X53492Y230728D01*
X54104Y231136D01*
X54513Y231748D01*
X54656Y232470D01*
X54513Y233192D01*
X54104Y233804D01*
X53492Y234213D01*
X52770Y234356D01*
D02*
G37*
G36*
X139100Y228286D02*
X138378Y228143D01*
X137766Y227734D01*
X137357Y227122D01*
X137214Y226400D01*
X137357Y225678D01*
X137766Y225066D01*
X138378Y224657D01*
X139100Y224514D01*
X139822Y224657D01*
X140434Y225066D01*
X140843Y225678D01*
X140986Y226400D01*
X140843Y227122D01*
X140434Y227734D01*
X139822Y228143D01*
X139100Y228286D01*
D02*
G37*
G36*
X98700D02*
X97978Y228143D01*
X97366Y227734D01*
X96957Y227122D01*
X96814Y226400D01*
X96957Y225678D01*
X97366Y225066D01*
X97978Y224657D01*
X98700Y224514D01*
X99422Y224657D01*
X100034Y225066D01*
X100443Y225678D01*
X100586Y226400D01*
X100443Y227122D01*
X100034Y227734D01*
X99422Y228143D01*
X98700Y228286D01*
D02*
G37*
G36*
X260700Y221586D02*
X259978Y221443D01*
X259366Y221034D01*
X258957Y220422D01*
X258814Y219700D01*
X258957Y218978D01*
X259366Y218366D01*
X259978Y217957D01*
X260700Y217814D01*
X261422Y217957D01*
X262034Y218366D01*
X262443Y218978D01*
X262586Y219700D01*
X262443Y220422D01*
X262034Y221034D01*
X261422Y221443D01*
X260700Y221586D01*
D02*
G37*
G36*
X392361Y226297D02*
X390994Y226117D01*
X389720Y225589D01*
X388627Y224750D01*
X387787Y223656D01*
X387260Y222383D01*
X387080Y221016D01*
X387260Y219649D01*
X387787Y218375D01*
X388627Y217282D01*
X389720Y216442D01*
X390994Y215915D01*
X392361Y215735D01*
X393728Y215915D01*
X395001Y216442D01*
X396095Y217282D01*
X396934Y218375D01*
X397462Y219649D01*
X397642Y221016D01*
X397462Y222383D01*
X396934Y223656D01*
X396095Y224750D01*
X395001Y225589D01*
X393728Y226117D01*
X392361Y226297D01*
D02*
G37*
G36*
X271300Y215786D02*
X270578Y215643D01*
X269966Y215234D01*
X269557Y214622D01*
X269414Y213900D01*
X269557Y213178D01*
X269966Y212566D01*
X270578Y212157D01*
X271300Y212014D01*
X272022Y212157D01*
X272634Y212566D01*
X273043Y213178D01*
X273186Y213900D01*
X273043Y214622D01*
X272634Y215234D01*
X272022Y215643D01*
X271300Y215786D01*
D02*
G37*
G36*
X140200Y210886D02*
X139478Y210743D01*
X138866Y210334D01*
X138457Y209722D01*
X138314Y209000D01*
X138457Y208278D01*
X138866Y207666D01*
X139478Y207257D01*
X140200Y207114D01*
X140922Y207257D01*
X141534Y207666D01*
X141943Y208278D01*
X142086Y209000D01*
X141943Y209722D01*
X141534Y210334D01*
X140922Y210743D01*
X140200Y210886D01*
D02*
G37*
G36*
X405865Y221039D02*
X404493Y220904D01*
X403174Y220504D01*
X401958Y219854D01*
X400893Y218980D01*
X400018Y217914D01*
X399369Y216699D01*
X398968Y215380D01*
X398833Y214008D01*
X398968Y212636D01*
X399369Y211317D01*
X400018Y210101D01*
X400893Y209036D01*
X401958Y208161D01*
X403174Y207512D01*
X404493Y207112D01*
X405865Y206976D01*
X407236Y207112D01*
X408556Y207512D01*
X409771Y208161D01*
X410837Y209036D01*
X411711Y210101D01*
X412361Y211317D01*
X412761Y212636D01*
X412896Y214008D01*
X412761Y215380D01*
X412361Y216699D01*
X411711Y217914D01*
X410837Y218980D01*
X409771Y219854D01*
X408556Y220504D01*
X407236Y220904D01*
X405865Y221039D01*
D02*
G37*
G36*
X89200Y208186D02*
X88478Y208043D01*
X87866Y207634D01*
X87457Y207022D01*
X87314Y206300D01*
X87457Y205578D01*
X87866Y204966D01*
X88478Y204557D01*
X89200Y204414D01*
X89922Y204557D01*
X90534Y204966D01*
X90943Y205578D01*
X91086Y206300D01*
X90943Y207022D01*
X90534Y207634D01*
X89922Y208043D01*
X89200Y208186D01*
D02*
G37*
G36*
X106800Y207986D02*
X106078Y207843D01*
X105466Y207434D01*
X105057Y206822D01*
X104914Y206100D01*
X105057Y205378D01*
X105466Y204766D01*
X106078Y204357D01*
X106800Y204214D01*
X107522Y204357D01*
X108134Y204766D01*
X108543Y205378D01*
X108686Y206100D01*
X108543Y206822D01*
X108134Y207434D01*
X107522Y207843D01*
X106800Y207986D01*
D02*
G37*
G36*
X131300Y207586D02*
X130578Y207443D01*
X129966Y207034D01*
X129557Y206422D01*
X129414Y205700D01*
X129557Y204978D01*
X129966Y204366D01*
X130578Y203957D01*
X131300Y203814D01*
X132022Y203957D01*
X132634Y204366D01*
X133043Y204978D01*
X133186Y205700D01*
X133043Y206422D01*
X132634Y207034D01*
X132022Y207443D01*
X131300Y207586D01*
D02*
G37*
G36*
X250400Y207086D02*
X249678Y206943D01*
X249066Y206534D01*
X248657Y205922D01*
X248514Y205200D01*
X248657Y204478D01*
X249066Y203866D01*
X249678Y203457D01*
X250400Y203314D01*
X251122Y203457D01*
X251734Y203866D01*
X252143Y204478D01*
X252286Y205200D01*
X252143Y205922D01*
X251734Y206534D01*
X251122Y206943D01*
X250400Y207086D01*
D02*
G37*
G36*
X122500Y206786D02*
X121778Y206643D01*
X121166Y206234D01*
X120757Y205622D01*
X120614Y204900D01*
X120757Y204178D01*
X121166Y203566D01*
X121778Y203157D01*
X122500Y203014D01*
X123222Y203157D01*
X123834Y203566D01*
X124243Y204178D01*
X124386Y204900D01*
X124243Y205622D01*
X123834Y206234D01*
X123222Y206643D01*
X122500Y206786D01*
D02*
G37*
G36*
X399217Y206454D02*
X392513D01*
Y200326D01*
X392013Y200227D01*
X391785Y200777D01*
X391248Y201477D01*
X390547Y202015D01*
X389732Y202352D01*
X388857Y202467D01*
X387982Y202352D01*
X387166Y202015D01*
X386466Y201477D01*
X385929Y200777D01*
X385591Y199962D01*
X385476Y199087D01*
X385591Y198212D01*
X385929Y197396D01*
X386466Y196696D01*
X387166Y196159D01*
X387982Y195821D01*
X388857Y195706D01*
X389732Y195821D01*
X390547Y196159D01*
X391248Y196696D01*
X391785Y197396D01*
X392123Y198212D01*
X392238Y199087D01*
X392199Y199380D01*
X392655Y199750D01*
X399217D01*
Y206454D01*
D02*
G37*
G36*
X113500Y203786D02*
X112778Y203643D01*
X112166Y203234D01*
X111757Y202622D01*
X111614Y201900D01*
X111757Y201178D01*
X112166Y200566D01*
X112778Y200157D01*
X113500Y200014D01*
X114222Y200157D01*
X114834Y200566D01*
X115243Y201178D01*
X115386Y201900D01*
X115243Y202622D01*
X114834Y203234D01*
X114222Y203643D01*
X113500Y203786D01*
D02*
G37*
G36*
X88100Y203286D02*
X87378Y203143D01*
X86766Y202734D01*
X86357Y202122D01*
X86214Y201400D01*
X86357Y200678D01*
X86766Y200066D01*
X87378Y199657D01*
X88100Y199514D01*
X88822Y199657D01*
X89434Y200066D01*
X89843Y200678D01*
X89986Y201400D01*
X89843Y202122D01*
X89434Y202734D01*
X88822Y203143D01*
X88100Y203286D01*
D02*
G37*
G36*
X236100Y203086D02*
X235378Y202943D01*
X234766Y202534D01*
X234357Y201922D01*
X234214Y201200D01*
X234357Y200478D01*
X234766Y199866D01*
X235378Y199457D01*
X236100Y199314D01*
X236822Y199457D01*
X237434Y199866D01*
X237843Y200478D01*
X237986Y201200D01*
X237843Y201922D01*
X237434Y202534D01*
X236822Y202943D01*
X236100Y203086D01*
D02*
G37*
G36*
X352900Y200686D02*
X352178Y200543D01*
X351566Y200134D01*
X351157Y199522D01*
X351014Y198800D01*
X351157Y198078D01*
X351566Y197466D01*
X352178Y197057D01*
X352900Y196914D01*
X353622Y197057D01*
X354234Y197466D01*
X354643Y198078D01*
X354786Y198800D01*
X354643Y199522D01*
X354234Y200134D01*
X353622Y200543D01*
X352900Y200686D01*
D02*
G37*
G36*
X215900Y200586D02*
X215178Y200443D01*
X214566Y200034D01*
X214157Y199422D01*
X214014Y198700D01*
X214157Y197978D01*
X214566Y197366D01*
X215178Y196957D01*
X215900Y196814D01*
X216622Y196957D01*
X217234Y197366D01*
X217643Y197978D01*
X217786Y198700D01*
X217643Y199422D01*
X217234Y200034D01*
X216622Y200443D01*
X215900Y200586D01*
D02*
G37*
G36*
X86820Y198807D02*
X86098Y198663D01*
X85487Y198254D01*
X85078Y197642D01*
X84934Y196920D01*
X85078Y196198D01*
X85487Y195587D01*
X86098Y195178D01*
X86820Y195034D01*
X87542Y195178D01*
X88154Y195587D01*
X88563Y196198D01*
X88706Y196920D01*
X88563Y197642D01*
X88154Y198254D01*
X87542Y198663D01*
X86820Y198807D01*
D02*
G37*
G36*
X229600Y197686D02*
X228878Y197543D01*
X228266Y197134D01*
X227857Y196522D01*
X227714Y195800D01*
X227857Y195078D01*
X228266Y194466D01*
X228878Y194057D01*
X229600Y193914D01*
X230322Y194057D01*
X230934Y194466D01*
X231343Y195078D01*
X231486Y195800D01*
X231343Y196522D01*
X230934Y197134D01*
X230322Y197543D01*
X229600Y197686D01*
D02*
G37*
G36*
X254600Y195886D02*
X253878Y195743D01*
X253266Y195334D01*
X252857Y194722D01*
X252714Y194000D01*
X252857Y193278D01*
X253266Y192666D01*
X253878Y192257D01*
X254600Y192114D01*
X255322Y192257D01*
X255934Y192666D01*
X256343Y193278D01*
X256486Y194000D01*
X256343Y194722D01*
X255934Y195334D01*
X255322Y195743D01*
X254600Y195886D01*
D02*
G37*
G36*
X81500Y195686D02*
X80778Y195543D01*
X80166Y195134D01*
X79757Y194522D01*
X79614Y193800D01*
X79757Y193078D01*
X80166Y192466D01*
X80778Y192057D01*
X81500Y191914D01*
X82222Y192057D01*
X82834Y192466D01*
X83243Y193078D01*
X83386Y193800D01*
X83243Y194522D01*
X82834Y195134D01*
X82222Y195543D01*
X81500Y195686D01*
D02*
G37*
G36*
X395865Y198452D02*
X394990Y198337D01*
X394174Y197999D01*
X393474Y197461D01*
X392937Y196761D01*
X392599Y195946D01*
X392484Y195071D01*
X392599Y194196D01*
X392937Y193380D01*
X393474Y192680D01*
X394174Y192143D01*
X394990Y191805D01*
X395865Y191690D01*
X396740Y191805D01*
X397555Y192143D01*
X398255Y192680D01*
X398793Y193380D01*
X399131Y194196D01*
X399246Y195071D01*
X399131Y195946D01*
X398793Y196761D01*
X398255Y197461D01*
X397555Y197999D01*
X396740Y198337D01*
X395865Y198452D01*
D02*
G37*
G36*
X152700Y192986D02*
X151978Y192843D01*
X151366Y192434D01*
X150957Y191822D01*
X150814Y191100D01*
X150957Y190378D01*
X151366Y189766D01*
X151978Y189357D01*
X152700Y189214D01*
X153422Y189357D01*
X154034Y189766D01*
X154443Y190378D01*
X154586Y191100D01*
X154443Y191822D01*
X154034Y192434D01*
X153422Y192843D01*
X152700Y192986D01*
D02*
G37*
G36*
X388857Y194436D02*
X387982Y194321D01*
X387167Y193983D01*
X386466Y193446D01*
X385929Y192746D01*
X385591Y191930D01*
X385476Y191055D01*
X385591Y190180D01*
X385929Y189365D01*
X386466Y188664D01*
X387167Y188127D01*
X387982Y187789D01*
X388857Y187674D01*
X389732Y187789D01*
X390547Y188127D01*
X391248Y188664D01*
X391785Y189365D01*
X392123Y190180D01*
X392238Y191055D01*
X392123Y191930D01*
X391785Y192746D01*
X391248Y193446D01*
X390547Y193983D01*
X389732Y194321D01*
X388857Y194436D01*
D02*
G37*
G36*
X171200Y190886D02*
X170478Y190743D01*
X169866Y190334D01*
X169457Y189722D01*
X169314Y189000D01*
X169457Y188278D01*
X169866Y187666D01*
X170478Y187257D01*
X171200Y187114D01*
X171922Y187257D01*
X172534Y187666D01*
X172943Y188278D01*
X173086Y189000D01*
X172943Y189722D01*
X172534Y190334D01*
X171922Y190743D01*
X171200Y190886D01*
D02*
G37*
G36*
X234400Y190086D02*
X233678Y189943D01*
X233066Y189534D01*
X232657Y188922D01*
X232514Y188200D01*
X232657Y187478D01*
X233066Y186866D01*
X233678Y186457D01*
X234400Y186314D01*
X235122Y186457D01*
X235734Y186866D01*
X236143Y187478D01*
X236286Y188200D01*
X236143Y188922D01*
X235734Y189534D01*
X235122Y189943D01*
X234400Y190086D01*
D02*
G37*
G36*
X352800Y188386D02*
X352078Y188243D01*
X351466Y187834D01*
X351057Y187222D01*
X350914Y186500D01*
X351057Y185778D01*
X351466Y185166D01*
X352078Y184757D01*
X352800Y184614D01*
X353522Y184757D01*
X354134Y185166D01*
X354543Y185778D01*
X354686Y186500D01*
X354543Y187222D01*
X354134Y187834D01*
X353522Y188243D01*
X352800Y188386D01*
D02*
G37*
G36*
X148500Y188186D02*
X147778Y188043D01*
X147166Y187634D01*
X146757Y187022D01*
X146614Y186300D01*
X146757Y185578D01*
X147166Y184966D01*
X147778Y184557D01*
X148500Y184414D01*
X149222Y184557D01*
X149834Y184966D01*
X150243Y185578D01*
X150386Y186300D01*
X150243Y187022D01*
X149834Y187634D01*
X149222Y188043D01*
X148500Y188186D01*
D02*
G37*
G36*
X395865Y190420D02*
X394990Y190305D01*
X394174Y189967D01*
X393474Y189430D01*
X392937Y188730D01*
X392599Y187914D01*
X392484Y187039D01*
X392599Y186164D01*
X392937Y185349D01*
X393474Y184649D01*
X394174Y184111D01*
X394990Y183774D01*
X395865Y183659D01*
X396740Y183774D01*
X397555Y184111D01*
X398255Y184649D01*
X398793Y185349D01*
X399131Y186164D01*
X399246Y187039D01*
X399131Y187914D01*
X398793Y188730D01*
X398255Y189430D01*
X397555Y189967D01*
X396740Y190305D01*
X395865Y190420D01*
D02*
G37*
G36*
X245200Y187386D02*
X244478Y187243D01*
X243866Y186834D01*
X243457Y186222D01*
X243314Y185500D01*
X243457Y184778D01*
X243866Y184166D01*
X244478Y183757D01*
X245200Y183614D01*
X245922Y183757D01*
X246534Y184166D01*
X246943Y184778D01*
X247086Y185500D01*
X246943Y186222D01*
X246534Y186834D01*
X245922Y187243D01*
X245200Y187386D01*
D02*
G37*
G36*
X388857Y186405D02*
X387982Y186289D01*
X387167Y185952D01*
X386466Y185414D01*
X385929Y184714D01*
X385591Y183899D01*
X385476Y183024D01*
X385591Y182149D01*
X385929Y181333D01*
X386466Y180633D01*
X387167Y180096D01*
X387982Y179758D01*
X388857Y179643D01*
X389732Y179758D01*
X390547Y180096D01*
X391248Y180633D01*
X391785Y181333D01*
X392123Y182149D01*
X392238Y183024D01*
X392123Y183899D01*
X391785Y184714D01*
X391248Y185414D01*
X390547Y185952D01*
X389732Y186289D01*
X388857Y186405D01*
D02*
G37*
G36*
X108200Y180136D02*
X107478Y179993D01*
X106866Y179584D01*
X106457Y178972D01*
X106314Y178250D01*
X106457Y177528D01*
X106866Y176916D01*
X107478Y176507D01*
X108200Y176364D01*
X108922Y176507D01*
X109534Y176916D01*
X109943Y177528D01*
X110086Y178250D01*
X109943Y178972D01*
X109534Y179584D01*
X108922Y179993D01*
X108200Y180136D01*
D02*
G37*
G36*
X395865Y182389D02*
X394990Y182274D01*
X394174Y181936D01*
X393474Y181398D01*
X392937Y180698D01*
X392599Y179883D01*
X392484Y179008D01*
X392599Y178133D01*
X392937Y177317D01*
X393474Y176617D01*
X394174Y176080D01*
X394990Y175742D01*
X395865Y175627D01*
X396740Y175742D01*
X397555Y176080D01*
X398255Y176617D01*
X398793Y177317D01*
X399131Y178133D01*
X399246Y179008D01*
X399131Y179883D01*
X398793Y180698D01*
X398255Y181398D01*
X397555Y181936D01*
X396740Y182274D01*
X395865Y182389D01*
D02*
G37*
G36*
X249800Y177486D02*
X249078Y177343D01*
X248466Y176934D01*
X248057Y176322D01*
X247914Y175600D01*
X248057Y174878D01*
X248466Y174266D01*
X249078Y173857D01*
X249800Y173714D01*
X250522Y173857D01*
X251134Y174266D01*
X251543Y174878D01*
X251686Y175600D01*
X251543Y176322D01*
X251134Y176934D01*
X250522Y177343D01*
X249800Y177486D01*
D02*
G37*
G36*
X388857Y178373D02*
X387982Y178258D01*
X387167Y177920D01*
X386466Y177383D01*
X385929Y176683D01*
X385591Y175867D01*
X385476Y174992D01*
X385591Y174117D01*
X385929Y173302D01*
X386466Y172601D01*
X387167Y172064D01*
X387982Y171726D01*
X388857Y171611D01*
X389732Y171726D01*
X390547Y172064D01*
X391248Y172601D01*
X391785Y173302D01*
X392123Y174117D01*
X392238Y174992D01*
X392123Y175867D01*
X391785Y176683D01*
X391248Y177383D01*
X390547Y177920D01*
X389732Y178258D01*
X388857Y178373D01*
D02*
G37*
G36*
X144900Y171886D02*
X144178Y171743D01*
X143566Y171334D01*
X143157Y170722D01*
X143014Y170000D01*
X143157Y169278D01*
X143566Y168666D01*
X144178Y168257D01*
X144900Y168114D01*
X145622Y168257D01*
X146234Y168666D01*
X146643Y169278D01*
X146786Y170000D01*
X146643Y170722D01*
X146234Y171334D01*
X145622Y171743D01*
X144900Y171886D01*
D02*
G37*
G36*
X239300Y171386D02*
X238578Y171243D01*
X237966Y170834D01*
X237557Y170222D01*
X237414Y169500D01*
X237557Y168778D01*
X237966Y168166D01*
X238578Y167757D01*
X239300Y167614D01*
X240022Y167757D01*
X240634Y168166D01*
X241043Y168778D01*
X241186Y169500D01*
X241043Y170222D01*
X240634Y170834D01*
X240022Y171243D01*
X239300Y171386D01*
D02*
G37*
G36*
X296300Y165786D02*
X295578Y165643D01*
X294966Y165234D01*
X294557Y164622D01*
X294414Y163900D01*
X294557Y163178D01*
X294966Y162566D01*
X295578Y162157D01*
X296300Y162014D01*
X297022Y162157D01*
X297634Y162566D01*
X298043Y163178D01*
X298186Y163900D01*
X298043Y164622D01*
X297634Y165234D01*
X297022Y165643D01*
X296300Y165786D01*
D02*
G37*
G36*
X173600Y163986D02*
X172878Y163843D01*
X172266Y163434D01*
X171857Y162822D01*
X171714Y162100D01*
X171857Y161378D01*
X172266Y160766D01*
X172878Y160357D01*
X173600Y160214D01*
X174322Y160357D01*
X174934Y160766D01*
X175343Y161378D01*
X175486Y162100D01*
X175343Y162822D01*
X174934Y163434D01*
X174322Y163843D01*
X173600Y163986D01*
D02*
G37*
G36*
X405865Y171039D02*
X404493Y170904D01*
X403174Y170504D01*
X401958Y169854D01*
X400893Y168980D01*
X400018Y167914D01*
X399369Y166699D01*
X398968Y165380D01*
X398833Y164008D01*
X398968Y162636D01*
X399369Y161317D01*
X400018Y160101D01*
X400893Y159036D01*
X401958Y158161D01*
X403174Y157512D01*
X404493Y157112D01*
X405865Y156976D01*
X407236Y157112D01*
X408556Y157512D01*
X409771Y158161D01*
X410837Y159036D01*
X411711Y160101D01*
X412361Y161317D01*
X412761Y162636D01*
X412896Y164008D01*
X412761Y165380D01*
X412361Y166699D01*
X411711Y167914D01*
X410837Y168980D01*
X409771Y169854D01*
X408556Y170504D01*
X407236Y170904D01*
X405865Y171039D01*
D02*
G37*
G36*
X192000Y155686D02*
X191278Y155543D01*
X190666Y155134D01*
X190257Y154522D01*
X190114Y153800D01*
X190257Y153078D01*
X190666Y152466D01*
X191278Y152057D01*
X192000Y151914D01*
X192722Y152057D01*
X193334Y152466D01*
X193743Y153078D01*
X193886Y153800D01*
X193743Y154522D01*
X193334Y155134D01*
X192722Y155543D01*
X192000Y155686D01*
D02*
G37*
G36*
X392361Y162281D02*
X390994Y162101D01*
X389720Y161574D01*
X388627Y160734D01*
X387787Y159641D01*
X387260Y158367D01*
X387080Y157000D01*
X387260Y155633D01*
X387787Y154359D01*
X388627Y153266D01*
X389720Y152427D01*
X390994Y151899D01*
X392361Y151719D01*
X393728Y151899D01*
X395001Y152427D01*
X396095Y153266D01*
X396934Y154359D01*
X397462Y155633D01*
X397642Y157000D01*
X397462Y158367D01*
X396934Y159641D01*
X396095Y160734D01*
X395001Y161574D01*
X393728Y162101D01*
X392361Y162281D01*
D02*
G37*
G36*
X159400Y148686D02*
X158678Y148543D01*
X158066Y148134D01*
X157657Y147522D01*
X157514Y146800D01*
X157657Y146078D01*
X158066Y145466D01*
X158678Y145057D01*
X159400Y144914D01*
X160122Y145057D01*
X160734Y145466D01*
X161143Y146078D01*
X161286Y146800D01*
X161143Y147522D01*
X160734Y148134D01*
X160122Y148543D01*
X159400Y148686D01*
D02*
G37*
G36*
X154000Y131586D02*
X153278Y131443D01*
X152666Y131034D01*
X152257Y130422D01*
X152114Y129700D01*
X152257Y128978D01*
X152666Y128366D01*
X153278Y127957D01*
X154000Y127814D01*
X154722Y127957D01*
X155334Y128366D01*
X155743Y128978D01*
X155886Y129700D01*
X155743Y130422D01*
X155334Y131034D01*
X154722Y131443D01*
X154000Y131586D01*
D02*
G37*
G36*
X383000Y126986D02*
X382278Y126843D01*
X381666Y126434D01*
X381257Y125822D01*
X381114Y125100D01*
X381257Y124378D01*
X381666Y123766D01*
X382278Y123357D01*
X383000Y123214D01*
X383722Y123357D01*
X384334Y123766D01*
X384743Y124378D01*
X384886Y125100D01*
X384743Y125822D01*
X384334Y126434D01*
X383722Y126843D01*
X383000Y126986D01*
D02*
G37*
G36*
X306000Y110386D02*
X305278Y110243D01*
X304666Y109834D01*
X304257Y109222D01*
X304114Y108500D01*
X304257Y107778D01*
X304666Y107166D01*
X305278Y106757D01*
X306000Y106614D01*
X306722Y106757D01*
X307334Y107166D01*
X307743Y107778D01*
X307886Y108500D01*
X307743Y109222D01*
X307334Y109834D01*
X306722Y110243D01*
X306000Y110386D01*
D02*
G37*
G36*
X296200Y81886D02*
X295478Y81743D01*
X294866Y81334D01*
X294457Y80722D01*
X294314Y80000D01*
X294457Y79278D01*
X294866Y78666D01*
X295478Y78257D01*
X296200Y78114D01*
X296922Y78257D01*
X297534Y78666D01*
X297943Y79278D01*
X298086Y80000D01*
X297943Y80722D01*
X297534Y81334D01*
X296922Y81743D01*
X296200Y81886D01*
D02*
G37*
G36*
X285500Y79886D02*
X284778Y79743D01*
X284166Y79334D01*
X283757Y78722D01*
X283614Y78000D01*
X283757Y77278D01*
X284166Y76666D01*
X284778Y76257D01*
X285500Y76114D01*
X286222Y76257D01*
X286834Y76666D01*
X287243Y77278D01*
X287386Y78000D01*
X287243Y78722D01*
X286834Y79334D01*
X286222Y79743D01*
X285500Y79886D01*
D02*
G37*
G36*
X296300Y75986D02*
X295578Y75843D01*
X294966Y75434D01*
X294557Y74822D01*
X294414Y74100D01*
X294557Y73378D01*
X294966Y72766D01*
X295578Y72357D01*
X296300Y72214D01*
X297022Y72357D01*
X297634Y72766D01*
X298043Y73378D01*
X298186Y74100D01*
X298043Y74822D01*
X297634Y75434D01*
X297022Y75843D01*
X296300Y75986D01*
D02*
G37*
G36*
X283600Y57786D02*
X282878Y57643D01*
X282266Y57234D01*
X281857Y56622D01*
X281714Y55900D01*
X281857Y55178D01*
X282266Y54566D01*
X282878Y54157D01*
X283600Y54014D01*
X284322Y54157D01*
X284934Y54566D01*
X285343Y55178D01*
X285486Y55900D01*
X285343Y56622D01*
X284934Y57234D01*
X284322Y57643D01*
X283600Y57786D01*
D02*
G37*
G36*
X276400Y57686D02*
X275678Y57543D01*
X275066Y57134D01*
X274657Y56522D01*
X274514Y55800D01*
X274657Y55078D01*
X275066Y54466D01*
X275678Y54057D01*
X276400Y53914D01*
X277122Y54057D01*
X277734Y54466D01*
X278143Y55078D01*
X278286Y55800D01*
X278143Y56522D01*
X277734Y57134D01*
X277122Y57543D01*
X276400Y57686D01*
D02*
G37*
G36*
X309900Y43186D02*
X309178Y43043D01*
X308566Y42634D01*
X308157Y42022D01*
X308014Y41300D01*
X308157Y40578D01*
X308566Y39966D01*
X309178Y39557D01*
X309900Y39414D01*
X310622Y39557D01*
X311234Y39966D01*
X311643Y40578D01*
X311786Y41300D01*
X311643Y42022D01*
X311234Y42634D01*
X310622Y43043D01*
X309900Y43186D01*
D02*
G37*
G36*
X268600Y38386D02*
X267878Y38243D01*
X267266Y37834D01*
X266857Y37222D01*
X266714Y36500D01*
X266857Y35778D01*
X267266Y35166D01*
X267878Y34757D01*
X268600Y34614D01*
X269322Y34757D01*
X269934Y35166D01*
X270343Y35778D01*
X270486Y36500D01*
X270343Y37222D01*
X269934Y37834D01*
X269322Y38243D01*
X268600Y38386D01*
D02*
G37*
G36*
X276300Y32886D02*
X275578Y32743D01*
X274966Y32334D01*
X274557Y31722D01*
X274414Y31000D01*
X274557Y30278D01*
X274966Y29666D01*
X275578Y29257D01*
X276300Y29114D01*
X277022Y29257D01*
X277634Y29666D01*
X278043Y30278D01*
X278186Y31000D01*
X278043Y31722D01*
X277634Y32334D01*
X277022Y32743D01*
X276300Y32886D01*
D02*
G37*
G36*
X287687Y26342D02*
X286946Y26195D01*
X286318Y25774D01*
X285898Y25146D01*
X285750Y24405D01*
Y23617D01*
X285898Y22876D01*
X286318Y22248D01*
X286946Y21827D01*
X287687Y21680D01*
X288429Y21827D01*
X289057Y22248D01*
X289477Y22876D01*
X289625Y23617D01*
Y24405D01*
X289477Y25146D01*
X289057Y25774D01*
X288429Y26195D01*
X287687Y26342D01*
D02*
G37*
G36*
X270168D02*
X269426Y26195D01*
X268798Y25774D01*
X268378Y25146D01*
X268231Y24405D01*
Y23617D01*
X268378Y22876D01*
X268798Y22248D01*
X269426Y21827D01*
X270168Y21680D01*
X270909Y21827D01*
X271537Y22248D01*
X271957Y22876D01*
X272105Y23617D01*
Y24405D01*
X271957Y25146D01*
X271537Y25774D01*
X270909Y26195D01*
X270168Y26342D01*
D02*
G37*
G36*
X295365Y15413D02*
X294662Y15273D01*
X294067Y14876D01*
X293669Y14280D01*
X293529Y13578D01*
Y10822D01*
X293669Y10120D01*
X294067Y9524D01*
X294662Y9127D01*
X295365Y8987D01*
X296067Y9127D01*
X296662Y9524D01*
X297060Y10120D01*
X297200Y10822D01*
Y13578D01*
X297060Y14280D01*
X296662Y14876D01*
X296067Y15273D01*
X295365Y15413D01*
D02*
G37*
G36*
X262491D02*
X261788Y15273D01*
X261193Y14876D01*
X260795Y14280D01*
X260655Y13578D01*
Y10822D01*
X260795Y10120D01*
X261193Y9524D01*
X261788Y9127D01*
X262491Y8987D01*
X263193Y9127D01*
X263788Y9524D01*
X264186Y10120D01*
X264326Y10822D01*
Y13578D01*
X264186Y14280D01*
X263788Y14876D01*
X263193Y15273D01*
X262491Y15413D01*
D02*
G37*
%LPD*%
D107*
X409300Y265500D02*
D03*
D112*
X37100Y152800D02*
D03*
X25100Y219500D02*
D03*
X153100Y337200D02*
D03*
X382700Y58500D02*
D03*
X319800Y185200D02*
D03*
X84370Y184995D02*
D03*
X154820Y269320D02*
D03*
X121100Y114800D02*
D03*
X124700Y210500D02*
D03*
X107353Y199929D02*
D03*
X282600Y171800D02*
D03*
X261400Y211200D02*
D03*
X267800D02*
D03*
X256000Y175500D02*
D03*
X414400Y70500D02*
D03*
X150500Y178500D02*
D03*
X218300Y268700D02*
D03*
X185150Y170250D02*
D03*
X81300Y170500D02*
D03*
X182000Y283600D02*
D03*
X166800Y268500D02*
D03*
X358400Y61400D02*
D03*
X392400Y87700D02*
D03*
X370000Y242800D02*
D03*
X360200Y202200D02*
D03*
X355900Y152500D02*
D03*
X348400Y181800D02*
D03*
X303100Y187700D02*
D03*
X267900Y161100D02*
D03*
X117500Y165900D02*
D03*
X62100Y188000D02*
D03*
X312500Y119900D02*
D03*
D113*
X288000Y39200D02*
D03*
X43800Y38600D02*
D03*
X77000Y37500D02*
D03*
D114*
X270168Y23617D02*
Y24405D01*
X287687Y23617D02*
Y24405D01*
D115*
X295365Y10822D02*
Y13578D01*
X262491Y10822D02*
Y13578D01*
M02*
