G04*
G04 #@! TF.GenerationSoftware,Altium Limited,Altium Designer,20.1.14 (287)*
G04*
G04 Layer_Color=16711935*
%FSLAX25Y25*%
%MOIN*%
G70*
G04*
G04 #@! TF.SameCoordinates,46E05FB7-D2F1-4F7C-BBBD-68B76CC3C332*
G04*
G04*
G04 #@! TF.FilePolarity,Negative*
G04*
G01*
G75*
%ADD95C,0.06737*%
%ADD96R,0.06737X0.06737*%
%ADD97C,0.13595*%
%ADD98C,0.06304*%
%ADD99R,0.06304X0.06304*%
%ADD100C,0.10072*%
%ADD101C,0.03300*%
%ADD102C,0.05800*%
D95*
X419300Y355500D02*
D03*
Y345500D02*
D03*
Y335500D02*
D03*
Y325500D02*
D03*
Y315500D02*
D03*
Y305500D02*
D03*
Y295500D02*
D03*
Y285500D02*
D03*
Y275500D02*
D03*
Y265500D02*
D03*
X409300Y355500D02*
D03*
Y345500D02*
D03*
Y335500D02*
D03*
Y325500D02*
D03*
Y315500D02*
D03*
Y305500D02*
D03*
Y295500D02*
D03*
Y285500D02*
D03*
Y275500D02*
D03*
D96*
Y265500D02*
D03*
D97*
X405865Y164008D02*
D03*
Y214008D02*
D03*
D98*
X388857Y174992D02*
D03*
X395865Y179008D02*
D03*
X388857Y183024D02*
D03*
X395865Y187039D02*
D03*
X388857Y191055D02*
D03*
X395865Y195071D02*
D03*
X388857Y199087D02*
D03*
D99*
X395865Y203102D02*
D03*
D100*
X392361Y157000D02*
D03*
Y221016D02*
D03*
D101*
X37100Y152800D02*
D03*
X25100Y219500D02*
D03*
X153100Y337200D02*
D03*
X309900Y41300D02*
D03*
X296200Y80000D02*
D03*
X382700Y58500D02*
D03*
X319800Y185200D02*
D03*
X81500Y193800D02*
D03*
X84370Y184995D02*
D03*
X52770Y232470D02*
D03*
X88100Y201400D02*
D03*
X86820Y196920D02*
D03*
X98700Y265606D02*
D03*
X398500Y329600D02*
D03*
X154022Y260322D02*
D03*
X140300Y269400D02*
D03*
X154820Y269320D02*
D03*
X108200Y178250D02*
D03*
X121100Y114800D02*
D03*
X113500Y201900D02*
D03*
X175600Y256700D02*
D03*
X98700Y226400D02*
D03*
X127200Y242400D02*
D03*
X140200Y209000D02*
D03*
X122500Y204900D02*
D03*
X124700Y210500D02*
D03*
X107353Y199929D02*
D03*
X106800Y206100D02*
D03*
X383000Y125100D02*
D03*
X296300Y163900D02*
D03*
X282600Y171800D02*
D03*
X245200Y185500D02*
D03*
X234400Y188200D02*
D03*
X254600Y194000D02*
D03*
X249800Y175600D02*
D03*
X250400Y205200D02*
D03*
X261400Y211200D02*
D03*
X267800D02*
D03*
X256000Y175500D02*
D03*
X414400Y70500D02*
D03*
X152700Y191100D02*
D03*
X148500Y186300D02*
D03*
X229600Y195800D02*
D03*
X215900Y198700D02*
D03*
X171200Y189000D02*
D03*
X144900Y170000D02*
D03*
X150500Y178500D02*
D03*
X154000Y129700D02*
D03*
X285500Y78000D02*
D03*
X296300Y74100D02*
D03*
X192000Y153800D02*
D03*
X131300Y205700D02*
D03*
X236100Y201200D02*
D03*
X218300Y268700D02*
D03*
X185150Y170250D02*
D03*
X239300Y169500D02*
D03*
X306000Y108500D02*
D03*
X89200Y206300D02*
D03*
X159400Y146800D02*
D03*
X393300Y280500D02*
D03*
X346700Y299600D02*
D03*
X372800Y302700D02*
D03*
X373700Y283500D02*
D03*
X129700Y234862D02*
D03*
X136700Y237900D02*
D03*
X139100Y226400D02*
D03*
X136000Y245700D02*
D03*
X260700Y219700D02*
D03*
X378200Y309400D02*
D03*
X389000Y323300D02*
D03*
X390200Y346300D02*
D03*
X173600Y162100D02*
D03*
X271300Y213900D02*
D03*
X81300Y170500D02*
D03*
X182000Y283600D02*
D03*
X166800Y268500D02*
D03*
X358400Y61400D02*
D03*
X392400Y87700D02*
D03*
X370000Y242800D02*
D03*
X360200Y202200D02*
D03*
X355900Y152500D02*
D03*
X348400Y181800D02*
D03*
X303100Y187700D02*
D03*
X267900Y161100D02*
D03*
X117500Y165900D02*
D03*
X62100Y188000D02*
D03*
X276300Y31000D02*
D03*
X283600Y55900D02*
D03*
X268600Y36500D02*
D03*
X276400Y55800D02*
D03*
X352800Y186500D02*
D03*
X352900Y198800D02*
D03*
X312500Y119900D02*
D03*
D102*
X288000Y39200D02*
D03*
X43800Y38600D02*
D03*
X77000Y37500D02*
D03*
M02*
