G04*
G04 #@! TF.GenerationSoftware,Altium Limited,Altium Designer,20.1.14 (287)*
G04*
G04 Layer_Physical_Order=4*
G04 Layer_Color=16711680*
%FSLAX25Y25*%
%MOIN*%
G70*
G04*
G04 #@! TF.SameCoordinates,46E05FB7-D2F1-4F7C-BBBD-68B76CC3C332*
G04*
G04*
G04 #@! TF.FilePolarity,Positive*
G04*
G01*
G75*
%ADD10C,0.00600*%
%ADD106C,0.05937*%
%ADD107R,0.05937X0.05937*%
%ADD108C,0.12795*%
%ADD109C,0.05504*%
%ADD110R,0.05504X0.05504*%
%ADD111C,0.09272*%
%ADD112C,0.02500*%
%ADD113C,0.05000*%
%ADD114C,0.02600*%
%ADD115C,0.02400*%
D10*
X309900Y41300D02*
Y49600D01*
X202700Y72700D02*
X286800D01*
X309900Y49600D01*
X144900Y130500D02*
X202700Y72700D01*
X144900Y130500D02*
Y170000D01*
X399517Y176083D02*
Y210035D01*
X398567Y175134D02*
X399517Y176083D01*
X398567Y140667D02*
Y175134D01*
X383000Y125100D02*
X398567Y140667D01*
X50620Y224680D02*
X81500Y193800D01*
X50620Y224680D02*
Y245361D01*
X164628Y359368D01*
X410902D01*
X414591Y355680D01*
Y270209D02*
Y355680D01*
Y270209D02*
X419300Y265500D01*
X144944Y269400D02*
X154022Y260322D01*
X140300Y269400D02*
X144944D01*
X192000Y153800D02*
X222300D01*
X296100Y80000D01*
X296200D01*
X88600Y192100D02*
X92800D01*
X52770Y227930D02*
Y232470D01*
Y227930D02*
X88600Y192100D01*
X82500Y201200D02*
Y223400D01*
Y201200D02*
X86780Y196920D01*
X82500Y223400D02*
X91400Y232300D01*
X86780Y196920D02*
X86820D01*
X83700Y205800D02*
X88100Y201400D01*
X98700Y265606D02*
X107606Y256700D01*
X175600D01*
X212200Y251400D02*
X307100Y346300D01*
X390200D01*
X398500Y211052D02*
Y329600D01*
Y211052D02*
X399517Y210035D01*
X148400Y186400D02*
Y194400D01*
X152500Y198500D02*
X215700D01*
X148400Y194400D02*
X152500Y198500D01*
X108200Y178250D02*
Y188279D01*
X119500Y201900D02*
X122500Y204900D01*
X108200Y188279D02*
X113500Y193579D01*
Y201900D02*
X119500D01*
X113500Y193579D02*
Y201900D01*
X98700Y226400D02*
X101000D01*
X122500Y204900D01*
X208500Y231100D02*
X260900Y283500D01*
X127200Y242400D02*
X136200Y251400D01*
X84900Y222406D02*
X92294Y229800D01*
X91400Y232300D02*
X205700D01*
X91797Y231000D02*
X206600D01*
X205700Y232300D02*
X269400Y296000D01*
X83700Y222903D02*
X91797Y231000D01*
X92294Y229800D02*
X207097D01*
X206600Y231000D02*
X268400Y292800D01*
X208397Y231100D02*
X208500D01*
X207097Y229800D02*
X208397Y231100D01*
X131559Y209000D02*
X140200D01*
X127459Y204900D02*
X131559Y209000D01*
X122500Y204900D02*
X127459D01*
X92800Y192100D02*
X106800Y206100D01*
X282250Y177650D02*
X296000Y163900D01*
X296300D01*
X254627Y177650D02*
X282250D01*
X249800Y175600D02*
X252577D01*
X254627Y177650D01*
X245200Y180200D02*
Y185500D01*
Y180200D02*
X249800Y175600D01*
X254150Y194000D02*
X254600D01*
X245650Y185500D02*
X254150Y194000D01*
X245200Y185500D02*
X245650D01*
X250400Y205200D02*
X254600Y201000D01*
Y194000D02*
Y201000D01*
X230200Y184000D02*
X234400Y188200D01*
X230200Y168100D02*
Y184000D01*
X152700Y191100D02*
X153200D01*
X157900Y195800D01*
X229600D01*
X148400Y186400D02*
X148500Y186300D01*
X215700Y198500D02*
X215900Y198700D01*
X171200Y189000D02*
X227700D01*
X252600Y213900D01*
X154000Y129700D02*
X205700Y78000D01*
X285500D01*
X159400Y146800D02*
X223600D01*
X296300Y74100D02*
X296300D01*
X223600Y146800D02*
X296300Y74100D01*
X131300Y205700D02*
X135800Y201200D01*
X236100D01*
X239300Y169500D02*
X245000D01*
X306000Y108500D01*
X173600Y162100D02*
X224200D01*
X230200Y168100D01*
X84900Y210400D02*
X89000Y206300D01*
X89200D01*
X84900Y210400D02*
Y222406D01*
X83700Y205800D02*
Y222903D01*
X260900Y283500D02*
X373700D01*
X268400Y292800D02*
X357300D01*
X393300Y280500D02*
Y296700D01*
X384400Y305600D02*
X393300Y296700D01*
X353700Y296000D02*
X363300Y305600D01*
X269400Y296000D02*
X353700D01*
X363300Y305600D02*
X384400D01*
X268000Y299600D02*
X346700D01*
X215100Y246700D02*
X268000Y299600D01*
X357300Y292800D02*
X367200Y302700D01*
X372800D01*
X260300Y219700D02*
X260700D01*
X139100Y226400D02*
X253600D01*
X260300Y219700D01*
X129700Y234862D02*
X137162D01*
X149000Y246700D01*
X215100D01*
X136700Y237900D02*
X147700Y248900D01*
X214700D01*
X275200Y309400D01*
X378200D01*
X136000Y245700D02*
X136900D01*
X141400Y250200D01*
X213600D02*
X286700Y323300D01*
X141400Y250200D02*
X213600D01*
X286700Y323300D02*
X389000D01*
X136200Y251400D02*
X212200D01*
X252600Y213900D02*
X271300D01*
X287900Y45250D02*
Y51600D01*
X276300Y33650D02*
X287900Y45250D01*
X276300Y31000D02*
Y33650D01*
X283600Y55900D02*
X287900Y51600D01*
X268600Y36500D02*
Y48000D01*
X276400Y55800D01*
X354202Y198300D02*
X376600D01*
X383845Y191055D02*
X388857D01*
X376600Y198300D02*
X383845Y191055D01*
X352900Y198800D02*
X353263Y198436D01*
X354065D01*
X354202Y198300D01*
X352800Y186500D02*
X363000D01*
X374508Y174992D02*
X388857D01*
X363000Y186500D02*
X374508Y174992D01*
D106*
X419300Y355500D02*
D03*
Y345500D02*
D03*
Y335500D02*
D03*
Y325500D02*
D03*
Y315500D02*
D03*
Y305500D02*
D03*
Y295500D02*
D03*
Y285500D02*
D03*
Y275500D02*
D03*
Y265500D02*
D03*
X409300Y355500D02*
D03*
Y345500D02*
D03*
Y335500D02*
D03*
Y325500D02*
D03*
Y315500D02*
D03*
Y305500D02*
D03*
Y295500D02*
D03*
Y285500D02*
D03*
Y275500D02*
D03*
D107*
Y265500D02*
D03*
D108*
X405865Y164008D02*
D03*
Y214008D02*
D03*
D109*
X388857Y174992D02*
D03*
X395865Y179008D02*
D03*
X388857Y183024D02*
D03*
X395865Y187039D02*
D03*
X388857Y191055D02*
D03*
X395865Y195071D02*
D03*
X388857Y199087D02*
D03*
D110*
X395865Y203102D02*
D03*
D111*
X392361Y157000D02*
D03*
Y221016D02*
D03*
D112*
X37100Y152800D02*
D03*
X25100Y219500D02*
D03*
X153100Y337200D02*
D03*
X309900Y41300D02*
D03*
X296200Y80000D02*
D03*
X382700Y58500D02*
D03*
X319800Y185200D02*
D03*
X81500Y193800D02*
D03*
X84370Y184995D02*
D03*
X52770Y232470D02*
D03*
X88100Y201400D02*
D03*
X86820Y196920D02*
D03*
X98700Y265606D02*
D03*
X398500Y329600D02*
D03*
X154022Y260322D02*
D03*
X140300Y269400D02*
D03*
X154820Y269320D02*
D03*
X108200Y178250D02*
D03*
X121100Y114800D02*
D03*
X113500Y201900D02*
D03*
X175600Y256700D02*
D03*
X98700Y226400D02*
D03*
X127200Y242400D02*
D03*
X140200Y209000D02*
D03*
X122500Y204900D02*
D03*
X124700Y210500D02*
D03*
X107353Y199929D02*
D03*
X106800Y206100D02*
D03*
X383000Y125100D02*
D03*
X296300Y163900D02*
D03*
X282600Y171800D02*
D03*
X245200Y185500D02*
D03*
X234400Y188200D02*
D03*
X254600Y194000D02*
D03*
X249800Y175600D02*
D03*
X250400Y205200D02*
D03*
X261400Y211200D02*
D03*
X267800D02*
D03*
X256000Y175500D02*
D03*
X414400Y70500D02*
D03*
X152700Y191100D02*
D03*
X148500Y186300D02*
D03*
X229600Y195800D02*
D03*
X215900Y198700D02*
D03*
X171200Y189000D02*
D03*
X144900Y170000D02*
D03*
X150500Y178500D02*
D03*
X154000Y129700D02*
D03*
X285500Y78000D02*
D03*
X296300Y74100D02*
D03*
X192000Y153800D02*
D03*
X131300Y205700D02*
D03*
X236100Y201200D02*
D03*
X218300Y268700D02*
D03*
X185150Y170250D02*
D03*
X239300Y169500D02*
D03*
X306000Y108500D02*
D03*
X89200Y206300D02*
D03*
X159400Y146800D02*
D03*
X393300Y280500D02*
D03*
X346700Y299600D02*
D03*
X372800Y302700D02*
D03*
X373700Y283500D02*
D03*
X129700Y234862D02*
D03*
X136700Y237900D02*
D03*
X139100Y226400D02*
D03*
X136000Y245700D02*
D03*
X260700Y219700D02*
D03*
X378200Y309400D02*
D03*
X389000Y323300D02*
D03*
X390200Y346300D02*
D03*
X173600Y162100D02*
D03*
X271300Y213900D02*
D03*
X81300Y170500D02*
D03*
X182000Y283600D02*
D03*
X166800Y268500D02*
D03*
X358400Y61400D02*
D03*
X392400Y87700D02*
D03*
X370000Y242800D02*
D03*
X360200Y202200D02*
D03*
X355900Y152500D02*
D03*
X348400Y181800D02*
D03*
X303100Y187700D02*
D03*
X267900Y161100D02*
D03*
X117500Y165900D02*
D03*
X62100Y188000D02*
D03*
X276300Y31000D02*
D03*
X283600Y55900D02*
D03*
X268600Y36500D02*
D03*
X276400Y55800D02*
D03*
X352800Y186500D02*
D03*
X352900Y198800D02*
D03*
X312500Y119900D02*
D03*
D113*
X288000Y39200D02*
D03*
X43800Y38600D02*
D03*
X77000Y37500D02*
D03*
D114*
X270168Y23617D02*
Y24405D01*
X287687Y23617D02*
Y24405D01*
D115*
X295365Y10822D02*
Y13578D01*
X262491Y10822D02*
Y13578D01*
M02*
