M48
;Layer_Color=9474304
;FILE_FORMAT=2:5
INCH,LZ
;TYPE=PLATED
T1F00S00C0.01300
T2F00S00C0.01500
T3F00S00C0.02800
T4F00S00C0.03504
T5F00S00C0.03937
T6F00S00C0.06181
;TYPE=NON_PLATED
T7F00S00C0.12795
%
T01
X03099Y00413
X03827Y00585
X03924Y00877
X04144Y00705
X0383Y01251
X03559Y01525
X03484Y01818
X03198Y01852
X03031Y01877
X02963Y01639
X02826Y01718
X02679Y01611
X0256Y01755
X02498Y01756
X02452Y01855
X02546Y0194
X02504Y02052
X02614Y02112
X02678
X02361Y02012
X02296Y01958
X02159Y01987
X02393Y01695
X03125Y01199
X0306Y01085
X02962Y008
X02963Y00741
X02855Y0078
X03584Y00614
X03602Y02022
X01712Y0189
X01527Y01911
X01485Y01863
X01505Y01785
X01449Y017
X01175Y01659
X01082Y017825
X0107353Y0199929
X01068Y02061
X01135Y02019
X01225Y02049
X01247Y02105
X01313Y02057
X01402Y0209
X00892Y02063
X00881Y02014
X008682Y019692
X008437Y0184995
X00813Y01705
X00621Y0188
X01211Y01148
X0154Y01297
X01594Y01468
X01736Y01621
X018515Y017025
X0192Y01538
X00371Y01528
X00251Y02195
X005277Y023247
X00987Y02264
Y0265606
X01272Y02424
X01297Y0234862
X01367Y02379
X0136Y02457
X01391Y02264
X015482Y026932
X01668Y02685
X01756Y02567
X0182Y02836
X01531Y03372
X02183Y02687
X02607Y02197
X02713Y02139
X03467Y02996
X03728Y03027
X03782Y03094
X0389Y03233
X03985Y03296
X03902Y03463
X03933Y02805
X03737Y02835
X037Y02428
T02
X02686Y00365
X02763Y0031
X02764Y00558
X02836Y00559
X02344Y01882
X03528Y01865
X03529Y01988
X00815Y01938
X01403Y02694
X0154022Y0260322
T03
X00438Y00386
X0077Y00375
X0288Y00392
T04
X0388857Y0174992
Y0183024
Y0191055
Y0199087
X0395865Y0195071
Y0187039
Y0179008
Y0203102
T05
X04093Y02655
X04193
Y02755
Y02855
Y02955
Y03055
Y03155
Y03255
Y03355
Y03455
Y03555
X04093
Y03455
Y03355
Y03255
Y03155
Y03055
Y02955
Y02855
Y02755
T06
X0392361Y0157
Y0221016
T07
X0405865Y0164008
Y0214008
M30
