G04*
G04 #@! TF.GenerationSoftware,Altium Limited,Altium Designer,20.1.14 (287)*
G04*
G04 Layer_Color=255*
%FSLAX25Y25*%
%MOIN*%
G70*
G04*
G04 #@! TF.SameCoordinates,46E05FB7-D2F1-4F7C-BBBD-68B76CC3C332*
G04*
G04*
G04 #@! TF.FilePolarity,Positive*
G04*
G01*
G75*
%ADD106C,0.05937*%
%ADD107R,0.05937X0.05937*%
%ADD108C,0.12795*%
%ADD109C,0.05504*%
%ADD110R,0.05504X0.05504*%
%ADD111C,0.09272*%
D106*
X419300Y355500D02*
D03*
Y345500D02*
D03*
Y335500D02*
D03*
Y325500D02*
D03*
Y315500D02*
D03*
Y305500D02*
D03*
Y295500D02*
D03*
Y285500D02*
D03*
Y275500D02*
D03*
Y265500D02*
D03*
X409300Y355500D02*
D03*
Y345500D02*
D03*
Y335500D02*
D03*
Y325500D02*
D03*
Y315500D02*
D03*
Y305500D02*
D03*
Y295500D02*
D03*
Y285500D02*
D03*
Y275500D02*
D03*
D107*
Y265500D02*
D03*
D108*
X405865Y164008D02*
D03*
Y214008D02*
D03*
D109*
X388857Y174992D02*
D03*
X395865Y179008D02*
D03*
X388857Y183024D02*
D03*
X395865Y187039D02*
D03*
X388857Y191055D02*
D03*
X395865Y195071D02*
D03*
X388857Y199087D02*
D03*
D110*
X395865Y203102D02*
D03*
D111*
X392361Y157000D02*
D03*
Y221016D02*
D03*
M02*
